<?xml version="1.0" encoding="UTF-8" standalone="no"?>
<!DOCTYPE svg PUBLIC "-//W3C//DTD SVG 1.1//EN"
 "http://www.w3.org/Graphics/SVG/1.1/DTD/svg11.dtd">
<!-- Generated by graphviz version 2.46.1 (0)
 -->
<!-- Title: snakemake_dag Pages: 1 -->
<svg width="246pt" height="692pt"
 viewBox="0.00 0.00 246.32 692.00" xmlns="http://www.w3.org/2000/svg" xmlns:xlink="http://www.w3.org/1999/xlink">
<g id="graph0" class="graph" transform="scale(1 1) rotate(0) translate(4 688)">
<title>snakemake_dag</title>
<polygon fill="white" stroke="transparent" points="-4,4 -4,-688 242.32,-688 242.32,4 -4,4"/>
<!-- 0 -->
<g id="node1" class="node">
<title>0</title>
<path fill="none" stroke="#d8cb56" stroke-width="2" d="M201,-36C201,-36 171,-36 171,-36 165,-36 159,-30 159,-24 159,-24 159,-12 159,-12 159,-6 165,0 171,0 171,0 201,0 201,0 207,0 213,-6 213,-12 213,-12 213,-24 213,-24 213,-30 207,-36 201,-36"/>
<text text-anchor="middle" x="186" y="-15.5" font-family="sans" font-size="10.00">final</text>
</g>
<!-- 1 -->
<g id="node2" class="node">
<title>1</title>
<path fill="none" stroke="#56d8b9" stroke-width="2" d="M215,-108C215,-108 157,-108 157,-108 151,-108 145,-102 145,-96 145,-96 145,-84 145,-84 145,-78 151,-72 157,-72 157,-72 215,-72 215,-72 221,-72 227,-78 227,-84 227,-84 227,-96 227,-96 227,-102 221,-108 215,-108"/>
<text text-anchor="middle" x="186" y="-87.5" font-family="sans" font-size="10.00">putative_CvaB</text>
</g>
<!-- 1&#45;&gt;0 -->
<g id="edge1" class="edge">
<title>1&#45;&gt;0</title>
<path fill="none" stroke="grey" stroke-width="2" d="M186,-71.7C186,-63.98 186,-54.71 186,-46.11"/>
<polygon fill="grey" stroke="grey" stroke-width="2" points="189.5,-46.1 186,-36.1 182.5,-46.1 189.5,-46.1"/>
</g>
<!-- 2 -->
<g id="node3" class="node">
<title>2</title>
<path fill="none" stroke="#56d86b" stroke-width="2" d="M173,-396C173,-396 129,-396 129,-396 123,-396 117,-390 117,-384 117,-384 117,-372 117,-372 117,-366 123,-360 129,-360 129,-360 173,-360 173,-360 179,-360 185,-366 185,-372 185,-372 185,-384 185,-384 185,-390 179,-396 173,-396"/>
<text text-anchor="middle" x="151" y="-375.5" font-family="sans" font-size="10.00">getBestHits</text>
</g>
<!-- 2&#45;&gt;1 -->
<g id="edge2" class="edge">
<title>2&#45;&gt;1</title>
<path fill="none" stroke="grey" stroke-width="2" d="M145.4,-359.88C133.43,-320.29 108.71,-219.98 138,-144 142.1,-133.36 149.44,-123.53 157.17,-115.3"/>
<polygon fill="grey" stroke="grey" stroke-width="2" points="159.67,-117.75 164.29,-108.21 154.73,-112.78 159.67,-117.75"/>
</g>
<!-- 8 -->
<g id="node9" class="node">
<title>8</title>
<path fill="none" stroke="#b6d856" stroke-width="2" d="M210,-324C210,-324 160,-324 160,-324 154,-324 148,-318 148,-312 148,-312 148,-300 148,-300 148,-294 154,-288 160,-288 160,-288 210,-288 210,-288 216,-288 222,-294 222,-300 222,-300 222,-312 222,-312 222,-318 216,-324 210,-324"/>
<text text-anchor="middle" x="185" y="-303.5" font-family="sans" font-size="10.00">bestHitsMSA</text>
</g>
<!-- 2&#45;&gt;8 -->
<g id="edge15" class="edge">
<title>2&#45;&gt;8</title>
<path fill="none" stroke="grey" stroke-width="2" d="M159.4,-359.7C163.27,-351.73 167.95,-342.1 172.24,-333.26"/>
<polygon fill="grey" stroke="grey" stroke-width="2" points="175.47,-334.63 176.69,-324.1 169.17,-331.57 175.47,-334.63"/>
</g>
<!-- 3 -->
<g id="node4" class="node">
<title>3</title>
<path fill="none" stroke="#56d892" stroke-width="2" d="M213,-180C213,-180 159,-180 159,-180 153,-180 147,-174 147,-168 147,-168 147,-156 147,-156 147,-150 153,-144 159,-144 159,-144 213,-144 213,-144 219,-144 225,-150 225,-156 225,-156 225,-168 225,-168 225,-174 219,-180 213,-180"/>
<text text-anchor="middle" x="186" y="-159.5" font-family="sans" font-size="10.00">catalytic_triad</text>
</g>
<!-- 3&#45;&gt;1 -->
<g id="edge3" class="edge">
<title>3&#45;&gt;1</title>
<path fill="none" stroke="grey" stroke-width="2" d="M186,-143.7C186,-135.98 186,-126.71 186,-118.11"/>
<polygon fill="grey" stroke="grey" stroke-width="2" points="189.5,-118.1 186,-108.1 182.5,-118.1 189.5,-118.1"/>
</g>
<!-- 4 -->
<g id="node5" class="node">
<title>4</title>
<path fill="none" stroke="#56d0d8" stroke-width="2" d="M212,-252C212,-252 160,-252 160,-252 154,-252 148,-246 148,-240 148,-240 148,-228 148,-228 148,-222 154,-216 160,-216 160,-216 212,-216 212,-216 218,-216 224,-222 224,-228 224,-228 224,-240 224,-240 224,-246 218,-252 212,-252"/>
<text text-anchor="middle" x="186" y="-231.5" font-family="sans" font-size="10.00">evaluateMSA</text>
</g>
<!-- 4&#45;&gt;1 -->
<g id="edge4" class="edge">
<title>4&#45;&gt;1</title>
<path fill="none" stroke="grey" stroke-width="2" d="M207.71,-215.79C217.76,-206.41 228.64,-193.9 234,-180 239.76,-165.07 239.76,-158.93 234,-144 229.9,-133.36 222.56,-123.53 214.83,-115.3"/>
<polygon fill="grey" stroke="grey" stroke-width="2" points="217.27,-112.78 207.71,-108.21 212.33,-117.75 217.27,-112.78"/>
</g>
<!-- 4&#45;&gt;3 -->
<g id="edge8" class="edge">
<title>4&#45;&gt;3</title>
<path fill="none" stroke="grey" stroke-width="2" d="M186,-215.7C186,-207.98 186,-198.71 186,-190.11"/>
<polygon fill="grey" stroke="grey" stroke-width="2" points="189.5,-190.1 186,-180.1 182.5,-190.1 189.5,-190.1"/>
</g>
<!-- 5 -->
<g id="node6" class="node">
<title>5</title>
<path fill="none" stroke="#68d856" stroke-width="2" d="M221,-468C221,-468 191,-468 191,-468 185,-468 179,-462 179,-456 179,-456 179,-444 179,-444 179,-438 185,-432 191,-432 191,-432 221,-432 221,-432 227,-432 233,-438 233,-444 233,-444 233,-456 233,-456 233,-462 227,-468 221,-468"/>
<text text-anchor="middle" x="206" y="-447.5" font-family="sans" font-size="10.00">blast</text>
</g>
<!-- 5&#45;&gt;2 -->
<g id="edge5" class="edge">
<title>5&#45;&gt;2</title>
<path fill="none" stroke="grey" stroke-width="2" d="M192.4,-431.7C185.88,-423.39 177.93,-413.28 170.75,-404.14"/>
<polygon fill="grey" stroke="grey" stroke-width="2" points="173.37,-401.81 164.44,-396.1 167.87,-406.13 173.37,-401.81"/>
</g>
<!-- 6 -->
<g id="node7" class="node">
<title>6</title>
<path fill="none" stroke="#8fd856" stroke-width="2" d="M170.5,-540C170.5,-540 131.5,-540 131.5,-540 125.5,-540 119.5,-534 119.5,-528 119.5,-528 119.5,-516 119.5,-516 119.5,-510 125.5,-504 131.5,-504 131.5,-504 170.5,-504 170.5,-504 176.5,-504 182.5,-510 182.5,-516 182.5,-516 182.5,-528 182.5,-528 182.5,-534 176.5,-540 170.5,-540"/>
<text text-anchor="middle" x="151" y="-519.5" font-family="sans" font-size="10.00">filter_input</text>
</g>
<!-- 6&#45;&gt;2 -->
<g id="edge6" class="edge">
<title>6&#45;&gt;2</title>
<path fill="none" stroke="grey" stroke-width="2" d="M151,-503.87C151,-479.67 151,-435.21 151,-406.39"/>
<polygon fill="grey" stroke="grey" stroke-width="2" points="154.5,-406.19 151,-396.19 147.5,-406.19 154.5,-406.19"/>
</g>
<!-- 6&#45;&gt;5 -->
<g id="edge10" class="edge">
<title>6&#45;&gt;5</title>
<path fill="none" stroke="grey" stroke-width="2" d="M164.6,-503.7C171.12,-495.39 179.07,-485.28 186.25,-476.14"/>
<polygon fill="grey" stroke="grey" stroke-width="2" points="189.13,-478.13 192.56,-468.1 183.63,-473.81 189.13,-478.13"/>
</g>
<!-- 7 -->
<g id="node8" class="node">
<title>7</title>
<path fill="none" stroke="#d87d56" stroke-width="2" d="M110.5,-468C110.5,-468 65.5,-468 65.5,-468 59.5,-468 53.5,-462 53.5,-456 53.5,-456 53.5,-444 53.5,-444 53.5,-438 59.5,-432 65.5,-432 65.5,-432 110.5,-432 110.5,-432 116.5,-432 122.5,-438 122.5,-444 122.5,-444 122.5,-456 122.5,-456 122.5,-462 116.5,-468 110.5,-468"/>
<text text-anchor="middle" x="88" y="-447.5" font-family="sans" font-size="10.00">hmmsearch</text>
</g>
<!-- 6&#45;&gt;7 -->
<g id="edge13" class="edge">
<title>6&#45;&gt;7</title>
<path fill="none" stroke="grey" stroke-width="2" d="M135.43,-503.7C127.8,-495.22 118.48,-484.86 110.12,-475.58"/>
<polygon fill="grey" stroke="grey" stroke-width="2" points="112.69,-473.2 103.39,-468.1 107.48,-477.88 112.69,-473.2"/>
</g>
<!-- 7&#45;&gt;2 -->
<g id="edge7" class="edge">
<title>7&#45;&gt;2</title>
<path fill="none" stroke="grey" stroke-width="2" d="M103.57,-431.7C111.2,-423.22 120.52,-412.86 128.88,-403.58"/>
<polygon fill="grey" stroke="grey" stroke-width="2" points="131.52,-405.88 135.61,-396.1 126.31,-401.2 131.52,-405.88"/>
</g>
<!-- 8&#45;&gt;4 -->
<g id="edge9" class="edge">
<title>8&#45;&gt;4</title>
<path fill="none" stroke="grey" stroke-width="2" d="M185.25,-287.7C185.36,-279.98 185.49,-270.71 185.61,-262.11"/>
<polygon fill="grey" stroke="grey" stroke-width="2" points="189.11,-262.15 185.76,-252.1 182.11,-262.05 189.11,-262.15"/>
</g>
<!-- 9 -->
<g id="node10" class="node">
<title>9</title>
<path fill="none" stroke="#567bd8" stroke-width="2" d="M158.5,-684C158.5,-684 103.5,-684 103.5,-684 97.5,-684 91.5,-678 91.5,-672 91.5,-672 91.5,-660 91.5,-660 91.5,-654 97.5,-648 103.5,-648 103.5,-648 158.5,-648 158.5,-648 164.5,-648 170.5,-654 170.5,-660 170.5,-660 170.5,-672 170.5,-672 170.5,-678 164.5,-684 158.5,-684"/>
<text text-anchor="middle" x="131" y="-663.5" font-family="sans" font-size="10.00">verified_CvaB</text>
</g>
<!-- 9&#45;&gt;5 -->
<g id="edge11" class="edge">
<title>9&#45;&gt;5</title>
<path fill="none" stroke="grey" stroke-width="2" d="M159.65,-647.91C172.1,-638.88 185.53,-626.63 193,-612 214.86,-569.18 213.27,-511.5 209.84,-478.08"/>
<polygon fill="grey" stroke="grey" stroke-width="2" points="213.31,-477.65 208.68,-468.12 206.36,-478.46 213.31,-477.65"/>
</g>
<!-- 12 -->
<g id="node13" class="node">
<title>12</title>
<path fill="none" stroke="#d85656" stroke-width="2" d="M88,-612C88,-612 12,-612 12,-612 6,-612 0,-606 0,-600 0,-600 0,-588 0,-588 0,-582 6,-576 12,-576 12,-576 88,-576 88,-576 94,-576 100,-582 100,-588 100,-588 100,-600 100,-600 100,-606 94,-612 88,-612"/>
<text text-anchor="middle" x="50" y="-591.5" font-family="sans" font-size="10.00">verified_CvaBMSA</text>
</g>
<!-- 9&#45;&gt;12 -->
<g id="edge17" class="edge">
<title>9&#45;&gt;12</title>
<path fill="none" stroke="grey" stroke-width="2" d="M110.98,-647.7C100.87,-638.97 88.46,-628.24 77.48,-618.75"/>
<polygon fill="grey" stroke="grey" stroke-width="2" points="79.65,-615.99 69.79,-612.1 75.07,-621.29 79.65,-615.99"/>
</g>
<!-- 10 -->
<g id="node11" class="node">
<title>10</title>
<path fill="none" stroke="#56a9d8" stroke-width="2" d="M171.5,-612C171.5,-612 130.5,-612 130.5,-612 124.5,-612 118.5,-606 118.5,-600 118.5,-600 118.5,-588 118.5,-588 118.5,-582 124.5,-576 130.5,-576 130.5,-576 171.5,-576 171.5,-576 177.5,-576 183.5,-582 183.5,-588 183.5,-588 183.5,-600 183.5,-600 183.5,-606 177.5,-612 171.5,-612"/>
<text text-anchor="middle" x="151" y="-591.5" font-family="sans" font-size="10.00">input_seqs</text>
</g>
<!-- 10&#45;&gt;6 -->
<g id="edge12" class="edge">
<title>10&#45;&gt;6</title>
<path fill="none" stroke="grey" stroke-width="2" d="M151,-575.7C151,-567.98 151,-558.71 151,-550.11"/>
<polygon fill="grey" stroke="grey" stroke-width="2" points="154.5,-550.1 151,-540.1 147.5,-550.1 154.5,-550.1"/>
</g>
<!-- 11 -->
<g id="node12" class="node">
<title>11</title>
<path fill="none" stroke="#d8a456" stroke-width="2" d="M79,-540C79,-540 43,-540 43,-540 37,-540 31,-534 31,-528 31,-528 31,-516 31,-516 31,-510 37,-504 43,-504 43,-504 79,-504 79,-504 85,-504 91,-510 91,-516 91,-516 91,-528 91,-528 91,-534 85,-540 79,-540"/>
<text text-anchor="middle" x="61" y="-519.5" font-family="sans" font-size="10.00">buildhmm</text>
</g>
<!-- 11&#45;&gt;7 -->
<g id="edge14" class="edge">
<title>11&#45;&gt;7</title>
<path fill="none" stroke="grey" stroke-width="2" d="M67.67,-503.7C70.71,-495.81 74.38,-486.3 77.76,-477.55"/>
<polygon fill="grey" stroke="grey" stroke-width="2" points="81.07,-478.69 81.4,-468.1 74.54,-476.17 81.07,-478.69"/>
</g>
<!-- 12&#45;&gt;11 -->
<g id="edge16" class="edge">
<title>12&#45;&gt;11</title>
<path fill="none" stroke="grey" stroke-width="2" d="M52.72,-575.7C53.93,-567.98 55.39,-558.71 56.74,-550.11"/>
<polygon fill="grey" stroke="grey" stroke-width="2" points="60.22,-550.53 58.31,-540.1 53.3,-549.44 60.22,-550.53"/>
</g>
</g>
</svg>
