<?xml version="1.0" encoding="UTF-8" standalone="no"?>
<!DOCTYPE svg PUBLIC "-//W3C//DTD SVG 1.1//EN"
 "http://www.w3.org/Graphics/SVG/1.1/DTD/svg11.dtd">
<!-- Generated by graphviz version 2.46.1 (0)
 -->
<!-- Title: snakemake_dag Pages: 1 -->
<svg width="378pt" height="620pt"
 viewBox="0.00 0.00 378.00 620.00" xmlns="http://www.w3.org/2000/svg" xmlns:xlink="http://www.w3.org/1999/xlink">
<g id="graph0" class="graph" transform="scale(1 1) rotate(0) translate(4 616)">
<title>snakemake_dag</title>
<polygon fill="white" stroke="transparent" points="-4,4 -4,-616 374,-616 374,4 -4,4"/>
<!-- 0 -->
<g id="node1" class="node">
<title>0</title>
<path fill="none" stroke="#59d856" stroke-width="2" d="M208,-36C208,-36 178,-36 178,-36 172,-36 166,-30 166,-24 166,-24 166,-12 166,-12 166,-6 172,0 178,0 178,0 208,0 208,0 214,0 220,-6 220,-12 220,-12 220,-24 220,-24 220,-30 214,-36 208,-36"/>
<text text-anchor="middle" x="193" y="-15.5" font-family="sans" font-size="10.00">final</text>
</g>
<!-- 1 -->
<g id="node2" class="node">
<title>1</title>
<path fill="none" stroke="#78d856" stroke-width="2" d="M230.5,-108C230.5,-108 155.5,-108 155.5,-108 149.5,-108 143.5,-102 143.5,-96 143.5,-96 143.5,-84 143.5,-84 143.5,-78 149.5,-72 155.5,-72 155.5,-72 230.5,-72 230.5,-72 236.5,-72 242.5,-78 242.5,-84 242.5,-84 242.5,-96 242.5,-96 242.5,-102 236.5,-108 230.5,-108"/>
<text text-anchor="middle" x="193" y="-87.5" font-family="sans" font-size="10.00">putative_microcins</text>
</g>
<!-- 1&#45;&gt;0 -->
<g id="edge1" class="edge">
<title>1&#45;&gt;0</title>
<path fill="none" stroke="grey" stroke-width="2" d="M193,-71.7C193,-63.98 193,-54.71 193,-46.11"/>
<polygon fill="grey" stroke="grey" stroke-width="2" points="196.5,-46.1 193,-36.1 189.5,-46.1 196.5,-46.1"/>
</g>
<!-- 2 -->
<g id="node3" class="node">
<title>2</title>
<path fill="none" stroke="#d8c356" stroke-width="2" d="M191,-324C191,-324 147,-324 147,-324 141,-324 135,-318 135,-312 135,-312 135,-300 135,-300 135,-294 141,-288 147,-288 147,-288 191,-288 191,-288 197,-288 203,-294 203,-300 203,-300 203,-312 203,-312 203,-318 197,-324 191,-324"/>
<text text-anchor="middle" x="169" y="-303.5" font-family="sans" font-size="10.00">getBestHits</text>
</g>
<!-- 2&#45;&gt;1 -->
<g id="edge2" class="edge">
<title>2&#45;&gt;1</title>
<path fill="none" stroke="grey" stroke-width="2" d="M153.39,-287.77C145.63,-278.03 137.05,-265.18 133,-252 128.3,-236.71 129.45,-231.6 133,-216 141.29,-179.58 161.57,-141.38 176.27,-116.95"/>
<polygon fill="grey" stroke="grey" stroke-width="2" points="179.34,-118.64 181.59,-108.29 173.37,-114.97 179.34,-118.64"/>
</g>
<!-- 4 -->
<g id="node5" class="node">
<title>4</title>
<path fill="none" stroke="#d85656" stroke-width="2" d="M184,-252C184,-252 154,-252 154,-252 148,-252 142,-246 142,-240 142,-240 142,-228 142,-228 142,-222 148,-216 154,-216 154,-216 184,-216 184,-216 190,-216 196,-222 196,-228 196,-228 196,-240 196,-240 196,-246 190,-252 184,-252"/>
<text text-anchor="middle" x="169" y="-231.5" font-family="sans" font-size="10.00">neuBI</text>
</g>
<!-- 2&#45;&gt;4 -->
<g id="edge10" class="edge">
<title>2&#45;&gt;4</title>
<path fill="none" stroke="grey" stroke-width="2" d="M169,-287.7C169,-279.98 169,-270.71 169,-262.11"/>
<polygon fill="grey" stroke="grey" stroke-width="2" points="172.5,-262.1 169,-252.1 165.5,-262.1 172.5,-262.1"/>
</g>
<!-- 9 -->
<g id="node10" class="node">
<title>9</title>
<path fill="none" stroke="#d8a456" stroke-width="2" d="M276,-252C276,-252 226,-252 226,-252 220,-252 214,-246 214,-240 214,-240 214,-228 214,-228 214,-222 220,-216 226,-216 226,-216 276,-216 276,-216 282,-216 288,-222 288,-228 288,-228 288,-240 288,-240 288,-246 282,-252 276,-252"/>
<text text-anchor="middle" x="251" y="-231.5" font-family="sans" font-size="10.00">bestHitsMSA</text>
</g>
<!-- 2&#45;&gt;9 -->
<g id="edge17" class="edge">
<title>2&#45;&gt;9</title>
<path fill="none" stroke="grey" stroke-width="2" d="M189.27,-287.7C199.5,-278.97 212.06,-268.24 223.18,-258.75"/>
<polygon fill="grey" stroke="grey" stroke-width="2" points="225.63,-261.26 230.96,-252.1 221.09,-255.94 225.63,-261.26"/>
</g>
<!-- 3 -->
<g id="node4" class="node">
<title>3</title>
<path fill="none" stroke="#56d87b" stroke-width="2" d="M252,-180C252,-180 200,-180 200,-180 194,-180 188,-174 188,-168 188,-168 188,-156 188,-156 188,-150 194,-144 200,-144 200,-144 252,-144 252,-144 258,-144 264,-150 264,-156 264,-156 264,-168 264,-168 264,-174 258,-180 252,-180"/>
<text text-anchor="middle" x="226" y="-159.5" font-family="sans" font-size="10.00">evaluateMSA</text>
</g>
<!-- 3&#45;&gt;1 -->
<g id="edge3" class="edge">
<title>3&#45;&gt;1</title>
<path fill="none" stroke="grey" stroke-width="2" d="M217.84,-143.7C214.09,-135.73 209.55,-126.1 205.38,-117.26"/>
<polygon fill="grey" stroke="grey" stroke-width="2" points="208.49,-115.66 201.06,-108.1 202.16,-118.64 208.49,-115.66"/>
</g>
<!-- 4&#45;&gt;1 -->
<g id="edge4" class="edge">
<title>4&#45;&gt;1</title>
<path fill="none" stroke="grey" stroke-width="2" d="M170.18,-215.83C171.59,-197.82 174.36,-168.76 179,-144 180.6,-135.45 182.84,-126.25 185.07,-117.95"/>
<polygon fill="grey" stroke="grey" stroke-width="2" points="188.51,-118.61 187.82,-108.04 181.77,-116.74 188.51,-118.61"/>
</g>
<!-- 5 -->
<g id="node6" class="node">
<title>5</title>
<path fill="none" stroke="#56d8c9" stroke-width="2" d="M358,-180C358,-180 294,-180 294,-180 288,-180 282,-174 282,-168 282,-168 282,-156 282,-156 282,-150 288,-144 294,-144 294,-144 358,-144 358,-144 364,-144 370,-150 370,-156 370,-156 370,-168 370,-168 370,-174 364,-180 358,-180"/>
<text text-anchor="middle" x="326" y="-159.5" font-family="sans" font-size="10.00">checkSignalSeq</text>
</g>
<!-- 5&#45;&gt;1 -->
<g id="edge5" class="edge">
<title>5&#45;&gt;1</title>
<path fill="none" stroke="grey" stroke-width="2" d="M293.46,-143.88C275.75,-134.55 253.65,-122.92 234.68,-112.94"/>
<polygon fill="grey" stroke="grey" stroke-width="2" points="236.14,-109.75 225.66,-108.19 232.88,-115.94 236.14,-109.75"/>
</g>
<!-- 6 -->
<g id="node7" class="node">
<title>6</title>
<path fill="none" stroke="#567bd8" stroke-width="2" d="M188.5,-468C188.5,-468 149.5,-468 149.5,-468 143.5,-468 137.5,-462 137.5,-456 137.5,-456 137.5,-444 137.5,-444 137.5,-438 143.5,-432 149.5,-432 149.5,-432 188.5,-432 188.5,-432 194.5,-432 200.5,-438 200.5,-444 200.5,-444 200.5,-456 200.5,-456 200.5,-462 194.5,-468 188.5,-468"/>
<text text-anchor="middle" x="169" y="-447.5" font-family="sans" font-size="10.00">filter_input</text>
</g>
<!-- 6&#45;&gt;2 -->
<g id="edge6" class="edge">
<title>6&#45;&gt;2</title>
<path fill="none" stroke="grey" stroke-width="2" d="M169,-431.87C169,-407.67 169,-363.21 169,-334.39"/>
<polygon fill="grey" stroke="grey" stroke-width="2" points="172.5,-334.19 169,-324.19 165.5,-334.19 172.5,-334.19"/>
</g>
<!-- 7 -->
<g id="node8" class="node">
<title>7</title>
<path fill="none" stroke="#c6d856" stroke-width="2" d="M239,-396C239,-396 209,-396 209,-396 203,-396 197,-390 197,-384 197,-384 197,-372 197,-372 197,-366 203,-360 209,-360 209,-360 239,-360 239,-360 245,-360 251,-366 251,-372 251,-372 251,-384 251,-384 251,-390 245,-396 239,-396"/>
<text text-anchor="middle" x="224" y="-375.5" font-family="sans" font-size="10.00">blast</text>
</g>
<!-- 6&#45;&gt;7 -->
<g id="edge13" class="edge">
<title>6&#45;&gt;7</title>
<path fill="none" stroke="grey" stroke-width="2" d="M182.6,-431.7C189.12,-423.39 197.07,-413.28 204.25,-404.14"/>
<polygon fill="grey" stroke="grey" stroke-width="2" points="207.13,-406.13 210.56,-396.1 201.63,-401.81 207.13,-406.13"/>
</g>
<!-- 8 -->
<g id="node9" class="node">
<title>8</title>
<path fill="none" stroke="#9fd856" stroke-width="2" d="M128.5,-396C128.5,-396 83.5,-396 83.5,-396 77.5,-396 71.5,-390 71.5,-384 71.5,-384 71.5,-372 71.5,-372 71.5,-366 77.5,-360 83.5,-360 83.5,-360 128.5,-360 128.5,-360 134.5,-360 140.5,-366 140.5,-372 140.5,-372 140.5,-384 140.5,-384 140.5,-390 134.5,-396 128.5,-396"/>
<text text-anchor="middle" x="106" y="-375.5" font-family="sans" font-size="10.00">hmmsearch</text>
</g>
<!-- 6&#45;&gt;8 -->
<g id="edge15" class="edge">
<title>6&#45;&gt;8</title>
<path fill="none" stroke="grey" stroke-width="2" d="M153.43,-431.7C145.8,-423.22 136.48,-412.86 128.12,-403.58"/>
<polygon fill="grey" stroke="grey" stroke-width="2" points="130.69,-401.2 121.39,-396.1 125.48,-405.88 130.69,-401.2"/>
</g>
<!-- 7&#45;&gt;2 -->
<g id="edge7" class="edge">
<title>7&#45;&gt;2</title>
<path fill="none" stroke="grey" stroke-width="2" d="M210.4,-359.7C203.88,-351.39 195.93,-341.28 188.75,-332.14"/>
<polygon fill="grey" stroke="grey" stroke-width="2" points="191.37,-329.81 182.44,-324.1 185.87,-334.13 191.37,-329.81"/>
</g>
<!-- 8&#45;&gt;2 -->
<g id="edge8" class="edge">
<title>8&#45;&gt;2</title>
<path fill="none" stroke="grey" stroke-width="2" d="M121.57,-359.7C129.2,-351.22 138.52,-340.86 146.88,-331.58"/>
<polygon fill="grey" stroke="grey" stroke-width="2" points="149.52,-333.88 153.61,-324.1 144.31,-329.2 149.52,-333.88"/>
</g>
<!-- 9&#45;&gt;3 -->
<g id="edge9" class="edge">
<title>9&#45;&gt;3</title>
<path fill="none" stroke="grey" stroke-width="2" d="M244.82,-215.7C242,-207.81 238.61,-198.3 235.48,-189.55"/>
<polygon fill="grey" stroke="grey" stroke-width="2" points="238.77,-188.34 232.11,-180.1 232.18,-190.7 238.77,-188.34"/>
</g>
<!-- 9&#45;&gt;5 -->
<g id="edge11" class="edge">
<title>9&#45;&gt;5</title>
<path fill="none" stroke="grey" stroke-width="2" d="M269.54,-215.7C278.8,-207.05 290.16,-196.45 300.26,-187.03"/>
<polygon fill="grey" stroke="grey" stroke-width="2" points="302.75,-189.49 307.67,-180.1 297.98,-184.37 302.75,-189.49"/>
</g>
<!-- 10 -->
<g id="node11" class="node">
<title>10</title>
<path fill="none" stroke="#56a2d8" stroke-width="2" d="M189.5,-540C189.5,-540 148.5,-540 148.5,-540 142.5,-540 136.5,-534 136.5,-528 136.5,-528 136.5,-516 136.5,-516 136.5,-510 142.5,-504 148.5,-504 148.5,-504 189.5,-504 189.5,-504 195.5,-504 201.5,-510 201.5,-516 201.5,-516 201.5,-528 201.5,-528 201.5,-534 195.5,-540 189.5,-540"/>
<text text-anchor="middle" x="169" y="-519.5" font-family="sans" font-size="10.00">input_seqs</text>
</g>
<!-- 10&#45;&gt;6 -->
<g id="edge12" class="edge">
<title>10&#45;&gt;6</title>
<path fill="none" stroke="grey" stroke-width="2" d="M169,-503.7C169,-495.98 169,-486.71 169,-478.11"/>
<polygon fill="grey" stroke="grey" stroke-width="2" points="172.5,-478.1 169,-468.1 165.5,-478.1 172.5,-478.1"/>
</g>
<!-- 11 -->
<g id="node12" class="node">
<title>11</title>
<path fill="none" stroke="#56d8a2" stroke-width="2" d="M180.5,-612C180.5,-612 107.5,-612 107.5,-612 101.5,-612 95.5,-606 95.5,-600 95.5,-600 95.5,-588 95.5,-588 95.5,-582 101.5,-576 107.5,-576 107.5,-576 180.5,-576 180.5,-576 186.5,-576 192.5,-582 192.5,-588 192.5,-588 192.5,-600 192.5,-600 192.5,-606 186.5,-612 180.5,-612"/>
<text text-anchor="middle" x="144" y="-591.5" font-family="sans" font-size="10.00">verified_microcins</text>
</g>
<!-- 11&#45;&gt;7 -->
<g id="edge14" class="edge">
<title>11&#45;&gt;7</title>
<path fill="none" stroke="grey" stroke-width="2" d="M175.61,-575.93C188.87,-567.05 203.03,-554.91 211,-540 233.67,-497.6 231.81,-439.78 228.1,-406.21"/>
<polygon fill="grey" stroke="grey" stroke-width="2" points="231.57,-405.71 226.86,-396.22 224.62,-406.57 231.57,-405.71"/>
</g>
<!-- 13 -->
<g id="node14" class="node">
<title>13</title>
<path fill="none" stroke="#d87d56" stroke-width="2" d="M106,-540C106,-540 12,-540 12,-540 6,-540 0,-534 0,-528 0,-528 0,-516 0,-516 0,-510 6,-504 12,-504 12,-504 106,-504 106,-504 112,-504 118,-510 118,-516 118,-516 118,-528 118,-528 118,-534 112,-540 106,-540"/>
<text text-anchor="middle" x="59" y="-519.5" font-family="sans" font-size="10.00">verified_microcinsMSA</text>
</g>
<!-- 11&#45;&gt;13 -->
<g id="edge19" class="edge">
<title>11&#45;&gt;13</title>
<path fill="none" stroke="grey" stroke-width="2" d="M122.99,-575.7C112.28,-566.88 99.11,-556.03 87.5,-546.47"/>
<polygon fill="grey" stroke="grey" stroke-width="2" points="89.71,-543.76 79.77,-540.1 85.26,-549.16 89.71,-543.76"/>
</g>
<!-- 12 -->
<g id="node13" class="node">
<title>12</title>
<path fill="none" stroke="#56c9d8" stroke-width="2" d="M92,-468C92,-468 56,-468 56,-468 50,-468 44,-462 44,-456 44,-456 44,-444 44,-444 44,-438 50,-432 56,-432 56,-432 92,-432 92,-432 98,-432 104,-438 104,-444 104,-444 104,-456 104,-456 104,-462 98,-468 92,-468"/>
<text text-anchor="middle" x="74" y="-447.5" font-family="sans" font-size="10.00">buildhmm</text>
</g>
<!-- 12&#45;&gt;8 -->
<g id="edge16" class="edge">
<title>12&#45;&gt;8</title>
<path fill="none" stroke="grey" stroke-width="2" d="M81.91,-431.7C85.55,-423.73 89.95,-414.1 93.99,-405.26"/>
<polygon fill="grey" stroke="grey" stroke-width="2" points="97.21,-406.65 98.18,-396.1 90.84,-403.74 97.21,-406.65"/>
</g>
<!-- 13&#45;&gt;12 -->
<g id="edge18" class="edge">
<title>13&#45;&gt;12</title>
<path fill="none" stroke="grey" stroke-width="2" d="M62.71,-503.7C64.36,-495.98 66.35,-486.71 68.19,-478.11"/>
<polygon fill="grey" stroke="grey" stroke-width="2" points="71.66,-478.62 70.33,-468.1 64.82,-477.15 71.66,-478.62"/>
</g>
</g>
</svg>
