<?xml version="1.0" encoding="UTF-8" standalone="no"?>
<svg
   xmlns:dc="http://purl.org/dc/elements/1.1/"
   xmlns:cc="http://creativecommons.org/ns#"
   xmlns:rdf="http://www.w3.org/1999/02/22-rdf-syntax-ns#"
   xmlns:svg="http://www.w3.org/2000/svg"
   xmlns="http://www.w3.org/2000/svg"
   xmlns:sodipodi="http://sodipodi.sourceforge.net/DTD/sodipodi-0.dtd"
   xmlns:inkscape="http://www.inkscape.org/namespaces/inkscape"
   width="1205pt"
   height="908pt"
   viewBox="0.00 0.00 1205.40 908.00"
   version="1.1"
   id="svg2113"
   sodipodi:docname="cinful_workflow.inkscape.svg"
   inkscape:version="1.0 (4035a4f, 2020-05-01)">
  <metadata
     id="metadata2119">
    <rdf:RDF>
      <cc:Work
         rdf:about="">
        <dc:format>image/svg+xml</dc:format>
        <dc:type
           rdf:resource="http://purl.org/dc/dcmitype/StillImage" />
        <dc:title></dc:title>
      </cc:Work>
    </rdf:RDF>
  </metadata>
  <defs
     id="defs2117" />
  <sodipodi:namedview
     inkscape:document-rotation="0"
     pagecolor="#ffffff"
     bordercolor="#666666"
     borderopacity="1"
     objecttolerance="10"
     gridtolerance="10"
     guidetolerance="10"
     inkscape:pageopacity="0"
     inkscape:pageshadow="2"
     inkscape:window-width="1920"
     inkscape:window-height="1035"
     id="namedview2115"
     showgrid="false"
     inkscape:zoom="0.83620847"
     inkscape:cx="662.35423"
     inkscape:cy="217.27211"
     inkscape:window-x="0"
     inkscape:window-y="23"
     inkscape:window-maximized="1"
     inkscape:current-layer="node10" />
  <g
     id="graph0"
     class="graph"
     transform="translate(4,904)">
    <title
       id="title1486">snakemake_dag</title>
    <polygon
       fill="#ffffff"
       stroke="transparent"
       points="1201.4,-904 1201.4,4 -4,4 -4,-904 "
       id="polygon1488" />
    <!-- 0 -->
    <g
       id="node1"
       class="node">
      <title
         id="title1490">0</title>
      <path
         fill="none"
         stroke="#d8d356"
         stroke-width="2"
         stroke-dasharray="5, 2"
         d="m 479,-36 c 0,0 -30,0 -30,0 -6,0 -12,6 -12,12 0,0 0,12 0,12 0,6 6,12 12,12 0,0 30,0 30,0 6,0 12,-6 12,-12 0,0 0,-12 0,-12 0,-6 -6,-12 -12,-12"
         id="path1492" />
      <text
         text-anchor="middle"
         x="464"
         y="-15.5"
         font-family="sans"
         font-size="10px"
         id="text1494">final</text>
    </g>
    <!-- 1 -->
    <g
       id="node2"
       class="node">
      <title
         id="title1497">1</title>
      <path
         fill="none"
         stroke="#56c1d8"
         stroke-width="2"
         stroke-dasharray="5, 2"
         d="m 447.5,-108 c 0,0 -81,0 -81,0 -6,0 -12,6 -12,12 0,0 0,12 0,12 0,6 6,12 12,12 0,0 81,0 81,0 6,0 12,-6 12,-12 0,0 0,-12 0,-12 0,-6 -6,-12 -12,-12"
         id="path1499" />
      <text
         text-anchor="middle"
         x="407"
         y="-87.5"
         font-family="sans"
         font-size="10px"
         id="text1501">candidate_immunity</text>
    </g>
    <!-- 1&#45;&gt;0 -->
    <g
       id="edge1"
       class="edge">
      <title
         id="title1504">1-&gt;0</title>
      <path
         fill="none"
         stroke="#808080"
         stroke-width="2"
         d="m 421.09,-71.7 c 6.83,8.4 15.17,18.63 22.67,27.84"
         id="path1506" />
      <polygon
         fill="#808080"
         stroke="#808080"
         stroke-width="2"
         points="441.04,-41.65 446.47,-46.07 450.07,-36.1 "
         id="polygon1508" />
    </g>
    <!-- 2 -->
    <g
       id="node3"
       class="node">
      <title
         id="title1511">2</title>
      <path
         fill="none"
         stroke="#d86656"
         stroke-width="2"
         stroke-dasharray="5, 2"
         d="m 537.5,-180 c 0,0 -33,0 -33,0 -6,0 -12,6 -12,12 0,0 0,12 0,12 0,6 6,12 12,12 0,0 33,0 33,0 6,0 12,-6 12,-12 0,0 0,-12 0,-12 0,-6 -6,-12 -12,-12"
         id="path1513" />
      <text
         text-anchor="middle"
         x="521"
         y="-159.5"
         font-family="sans"
         font-size="10px"
         id="text1515">best_hits</text>
    </g>
    <!-- 2&#45;&gt;1 -->
    <g
       id="edge3"
       class="edge">
      <title
         id="title1518">2-&gt;1</title>
      <path
         fill="none"
         stroke="#808080"
         stroke-width="2"
         d="m 493.11,-143.88 c -14.9,9.16 -33.44,20.54 -49.49,30.4"
         id="path1520" />
      <polygon
         fill="#808080"
         stroke="#808080"
         stroke-width="2"
         points="441.69,-116.41 445.35,-110.44 434.99,-108.19 "
         id="polygon1522" />
    </g>
    <!-- 34 -->
    <g
       id="node35"
       class="node">
      <title
         id="title1525">34</title>
      <path
         fill="none"
         stroke="#bed856"
         stroke-width="2"
         stroke-dasharray="5, 2"
         d="m 552.5,-108 c 0,0 -63,0 -63,0 -6,0 -12,6 -12,12 0,0 0,12 0,12 0,6 6,12 12,12 0,0 63,0 63,0 6,0 12,-6 12,-12 0,0 0,-12 0,-12 0,-6 -6,-12 -12,-12"
         id="path1527" />
      <text
         text-anchor="middle"
         x="521"
         y="-87.5"
         font-family="sans"
         font-size="10px"
         id="text1529">bestHitsContigs</text>
    </g>
    <!-- 2&#45;&gt;34 -->
    <g
       id="edge53"
       class="edge">
      <title
         id="title1532">2-&gt;34</title>
      <path
         fill="none"
         stroke="#808080"
         stroke-width="2"
         d="m 521,-143.7 c 0,7.72 0,16.99 0,25.59"
         id="path1534" />
      <polygon
         fill="#808080"
         stroke="#808080"
         stroke-width="2"
         points="517.5,-118.1 524.5,-118.1 521,-108.1 "
         id="polygon1536" />
    </g>
    <!-- 3 -->
    <g
       id="node4"
       class="node">
      <title
         id="title1539">3</title>
      <path
         fill="none"
         stroke="#56d86b"
         stroke-width="2"
         stroke-dasharray="5, 2"
         d="m 645.5,-252 c 0,0 -61,0 -61,0 -6,0 -12,6 -12,12 0,0 0,12 0,12 0,6 6,12 12,12 0,0 61,0 61,0 6,0 12,-6 12,-12 0,0 0,-12 0,-12 0,-6 -6,-12 -12,-12"
         id="path1541" />
      <text
         text-anchor="middle"
         x="615"
         y="-231.5"
         font-family="sans"
         font-size="10px"
         id="text1543">merged_results</text>
    </g>
    <!-- 3&#45;&gt;2 -->
    <g
       id="edge6"
       class="edge">
      <title
         id="title1546">3-&gt;2</title>
      <path
         fill="none"
         stroke="#808080"
         stroke-width="2"
         d="m 591.76,-215.7 c -11.95,8.9 -26.68,19.88 -39.61,29.5"
         id="path1548" />
      <polygon
         fill="#808080"
         stroke="#808080"
         stroke-width="2"
         points="549.9,-188.88 554.08,-183.27 543.97,-180.1 "
         id="polygon1550" />
    </g>
    <!-- 4 -->
    <g
       id="node5"
       class="node">
      <title
         id="title1553">4</title>
      <path
         fill="none"
         stroke="#d8b456"
         stroke-width="2"
         stroke-dasharray="5, 2"
         d="m 1036,-612 c 0,0 -104,0 -104,0 -6,0 -12,6 -12,12 0,0 0,12 0,12 0,6 6,12 12,12 0,0 104,0 104,0 6,0 12,-6 12,-12 0,0 0,-12 0,-12 0,-6 -6,-12 -12,-12"
         id="path1555" />
      <text
         text-anchor="middle"
         x="984"
         y="-591.5"
         font-family="sans"
         font-size="10px"
         id="text1557">blast_v_hmmer_microcin</text>
    </g>
    <!-- 4&#45;&gt;3 -->
    <g
       id="edge8"
       class="edge">
      <title
         id="title1560">4-&gt;3</title>
      <path
         fill="none"
         stroke="#808080"
         stroke-width="2"
         d="M 975.91,-575.95 C 964.22,-549.72 944,-497.61 944,-451 c 0,0 0,0 0,74 0,118.88 -183.31,139.4 -276.27,142.17"
         id="path1562" />
      <polygon
         fill="#808080"
         stroke="#808080"
         stroke-width="2"
         points="667.59,-238.33 667.75,-231.33 657.67,-234.59 "
         id="polygon1564" />
    </g>
    <!-- 5 -->
    <g
       id="node6"
       class="node">
      <title
         id="title1567">5</title>
      <path
         fill="none"
         stroke="#56b1d8"
         stroke-width="2"
         stroke-dasharray="5, 2"
         d="m 1041.5,-684 c 0,0 -79,0 -79,0 -6,0 -12,6 -12,12 0,0 0,12 0,12 0,6 6,12 12,12 0,0 79,0 79,0 6,0 12,-6 12,-12 0,0 0,-12 0,-12 0,-6 -6,-12 -12,-12"
         id="path1569" />
      <text
         text-anchor="middle"
         x="1002"
         y="-663.5"
         font-family="sans"
         font-size="10px"
         id="text1571">buildhmm_microcin</text>
    </g>
    <!-- 5&#45;&gt;4 -->
    <g
       id="edge12"
       class="edge">
      <title
         id="title1574">5-&gt;4</title>
      <path
         fill="none"
         stroke="#808080"
         stroke-width="2"
         d="m 997.55,-647.7 c -2,7.8 -4.42,17.19 -6.65,25.87"
         id="path1576" />
      <polygon
         fill="#808080"
         stroke="#808080"
         stroke-width="2"
         points="987.5,-622.66 994.28,-620.92 988.4,-612.1 "
         id="polygon1578" />
    </g>
    <!-- 6 -->
    <g
       id="node7"
       class="node">
      <title
         id="title1581">6</title>
      <path
         fill="none"
         stroke="#d89556"
         stroke-width="2"
         stroke-dasharray="5, 2"
         d="m 1037,-756 c 0,0 -54,0 -54,0 -6,0 -12,6 -12,12 0,0 0,12 0,12 0,6 6,12 12,12 0,0 54,0 54,0 6,0 12,-6 12,-12 0,0 0,-12 0,-12 0,-6 -6,-12 -12,-12"
         id="path1583" />
      <text
         text-anchor="middle"
         x="1010"
         y="-735.5"
         font-family="sans"
         font-size="10px"
         id="text1585">msa_microcin</text>
    </g>
    <!-- 6&#45;&gt;5 -->
    <g
       id="edge15"
       class="edge">
      <title
         id="title1588">6-&gt;5</title>
      <path
         fill="none"
         stroke="#808080"
         stroke-width="2"
         d="m 1008.02,-719.7 c -0.88,7.72 -1.94,16.99 -2.92,25.59"
         id="path1590" />
      <polygon
         fill="#808080"
         stroke="#808080"
         stroke-width="2"
         points="1001.61,-694.44 1008.57,-693.64 1003.95,-684.1 "
         id="polygon1592" />
    </g>
    <!-- 7 -->
    <g
       id="node8"
       class="node">
      <title
         id="title1595">7</title>
      <path
         fill="none"
         stroke="#56d8a9"
         stroke-width="2"
         stroke-dasharray="5, 2"
         d="m 1155.5,-828 c 0,0 -61,0 -61,0 -6,0 -12,6 -12,12 0,0 0,12 0,12 0,6 6,12 12,12 0,0 61,0 61,0 6,0 12,-6 12,-12 0,0 0,-12 0,-12 0,-6 -6,-12 -12,-12"
         id="path1597" />
      <text
         text-anchor="middle"
         x="1125"
         y="-807.5"
         font-family="sans"
         font-size="10px"
         id="text1599">write_microcins</text>
    </g>
    <!-- 7&#45;&gt;6 -->
    <g
       id="edge16"
       class="edge">
      <title
         id="title1602">7-&gt;6</title>
      <path
         fill="none"
         stroke="#808080"
         stroke-width="2"
         d="m 1096.87,-791.88 c -15.04,9.16 -33.74,20.54 -49.93,30.4"
         id="path1604" />
      <polygon
         fill="#808080"
         stroke="#808080"
         stroke-width="2"
         points="1044.96,-764.38 1048.6,-758.4 1038.24,-756.19 "
         id="polygon1606" />
    </g>
    <!-- 14 -->
    <g
       id="node15"
       class="node">
      <title
         id="title1609">14</title>
      <path
         fill="none"
         stroke="#5673d8"
         stroke-width="2"
         stroke-dasharray="5, 2"
         d="m 1146,-684 c 0,0 -56,0 -56,0 -6,0 -12,6 -12,12 0,0 0,12 0,12 0,6 6,12 12,12 0,0 56,0 56,0 6,0 12,-6 12,-12 0,0 0,-12 0,-12 0,-6 -6,-12 -12,-12"
         id="path1611" />
      <text
         text-anchor="middle"
         x="1118"
         y="-663.5"
         font-family="sans"
         font-size="10px"
         id="text1613">blast_microcin</text>
    </g>
    <!-- 7&#45;&gt;14 -->
    <g
       id="edge22"
       class="edge">
      <title
         id="title1616">7-&gt;14</title>
      <path
         fill="none"
         stroke="#808080"
         stroke-width="2"
         d="m 1157.53,-791.98 c 13.26,8.8 27.17,20.89 34.47,35.98 6.97,14.4 7.31,21.77 0,36 -6.27,12.21 -16.81,22.23 -27.99,30.15"
         id="path1618" />
      <polygon
         fill="#808080"
         stroke="#808080"
         stroke-width="2"
         points="1161.84,-692.61 1165.67,-686.75 1155.39,-684.2 "
         id="polygon1620" />
    </g>
    <!-- 15 -->
    <g
       id="node16"
       class="node">
      <title
         id="title1623">15</title>
      <path
         fill="none"
         stroke="#9fd856"
         stroke-width="2"
         stroke-dasharray="5, 2"
         d="m 1171,-756 c 0,0 -92,0 -92,0 -6,0 -12,6 -12,12 0,0 0,12 0,12 0,6 6,12 12,12 0,0 92,0 92,0 6,0 12,-6 12,-12 0,0 0,-12 0,-12 0,-6 -6,-12 -12,-12"
         id="path1625" />
      <text
         text-anchor="middle"
         x="1125"
         y="-735.5"
         font-family="sans"
         font-size="10px"
         id="text1627">makeblastdb_microcin</text>
    </g>
    <!-- 7&#45;&gt;15 -->
    <g
       id="edge25"
       class="edge">
      <title
         id="title1630">7-&gt;15</title>
      <path
         fill="none"
         stroke="#808080"
         stroke-width="2"
         d="m 1125,-791.7 c 0,7.72 0,16.99 0,25.59"
         id="path1632" />
      <polygon
         fill="#808080"
         stroke="#808080"
         stroke-width="2"
         points="1121.5,-766.1 1128.5,-766.1 1125,-756.1 "
         id="polygon1634" />
    </g>
    <!-- 8 -->
    <g
       id="node9"
       class="node">
      <title
         id="title1637">8</title>
      <path
         fill="none"
         stroke="#56d8c9"
         stroke-width="2"
         stroke-dasharray="5, 2"
         d="m 941,-756 c 0,0 -54,0 -54,0 -6,0 -12,6 -12,12 0,0 0,12 0,12 0,6 6,12 12,12 0,0 54,0 54,0 6,0 12,-6 12,-12 0,0 0,-12 0,-12 0,-6 -6,-12 -12,-12"
         id="path1639" />
      <text
         text-anchor="middle"
         x="914"
         y="-735.5"
         font-family="sans"
         font-size="10px"
         id="text1641">filter_microcin</text>
    </g>
    <!-- 8&#45;&gt;4 -->
    <g
       id="edge13"
       class="edge">
      <title
         id="title1644">8-&gt;4</title>
      <path
         fill="none"
         stroke="#808080"
         stroke-width="2"
         d="m 917.43,-719.87 c 4.14,18.47 12.13,48.4 24.57,71.87 5.25,9.9 12.43,19.79 19.36,28.3"
         id="path1646" />
      <polygon
         fill="#808080"
         stroke="#808080"
         stroke-width="2"
         points="958.74,-617.38 964.08,-621.9 967.87,-612.01 "
         id="polygon1648" />
    </g>
    <!-- 8&#45;&gt;14 -->
    <g
       id="edge24"
       class="edge">
      <title
         id="title1651">8-&gt;14</title>
      <path
         fill="none"
         stroke="#808080"
         stroke-width="2"
         d="m 953.02,-723.13 c 3.04,1.06 6.06,2.12 8.98,3.13 35.48,12.31 75.6,25.93 106.27,36.29"
         id="path1653" />
      <polygon
         fill="#808080"
         stroke="#808080"
         stroke-width="2"
         points="1067.28,-680.35 1069.52,-686.99 1077.87,-680.47 "
         id="polygon1655" />
    </g>
    <!-- 9 -->
    <g
       id="node10"
       class="node">
      <title
         id="title1658">9</title>
      <path
         fill="none"
         stroke="#56d89a"
         stroke-width="2"
         stroke-dasharray="5, 2"
         d="m 587.5,-828 c 0,0 -95,0 -95,0 -6,0 -12,6 -12,12 0,0 0,12 0,12 0,6 6,12 12,12 0,0 95,0 95,0 6,0 12,-6 12,-12 0,0 0,-12 0,-12 0,-6 -6,-12 -12,-12"
         id="path1660" />
      <text
         text-anchor="middle"
         x="540"
         y="-807.5"
         font-family="sans"
         font-size="10px"
         id="text1662">nonredundant_prodigal</text>
      <text
         id="text2811"
         font-size="10px"
         font-family="sans"
         y="-893.02783"
         x="540"
         text-anchor="middle">prodigal</text>
    </g>
    <!-- 9&#45;&gt;1 -->
    <g
       id="edge4"
       class="edge">
      <title
         id="title1665">9-&gt;1</title>
      <path
         fill="none"
         stroke="#808080"
         stroke-width="2"
         d="M 480.41,-805.93 C 339.97,-797.07 0,-765.45 0,-667 c 0,0 0,0 0,434 0,72.01 229.99,116 344.19,133.4"
         id="path1667" />
      <polygon
         fill="#808080"
         stroke="#808080"
         stroke-width="2"
         points="343.8,-96.12 344.84,-103.04 354.21,-98.09 "
         id="polygon1669" />
    </g>
    <!-- 9&#45;&gt;2 -->
    <g
       id="edge7"
       class="edge">
      <title
         id="title1672">9-&gt;2</title>
      <path
         fill="none"
         stroke="#808080"
         stroke-width="2"
         d="M 536.16,-791.61 C 530.6,-764.94 521,-712.27 521,-667 c 0,0 0,0 0,362 0,40 0,86.35 0,114.92"
         id="path1674" />
      <polygon
         fill="#808080"
         stroke="#808080"
         stroke-width="2"
         points="517.5,-190.05 524.5,-190.05 521,-180.05 "
         id="polygon1676" />
    </g>
    <!-- 9&#45;&gt;8 -->
    <g
       id="edge17"
       class="edge">
      <title
         id="title1679">9-&gt;8</title>
      <path
         fill="none"
         stroke="#808080"
         stroke-width="2"
         d="m 599.55,-802.57 c 63.74,7.61 167.82,22.12 265.59,46.59"
         id="path1681" />
      <polygon
         fill="#808080"
         stroke="#808080"
         stroke-width="2"
         points="864.33,-752.57 866.06,-759.35 874.88,-753.5 "
         id="polygon1683" />
    </g>
    <!-- 20 -->
    <g
       id="node21"
       class="node">
      <title
         id="title1686">20</title>
      <path
         fill="none"
         stroke="#d88556"
         stroke-width="2"
         stroke-dasharray="5, 2"
         d="m 133.5,-468 c 0,0 -93,0 -93,0 -6,0 -12,6 -12,12 0,0 0,12 0,12 0,6 6,12 12,12 0,0 93,0 93,0 6,0 12,-6 12,-12 0,0 0,-12 0,-12 0,-6 -6,-12 -12,-12"
         id="path1688" />
      <text
         text-anchor="middle"
         x="87"
         y="-447.5"
         font-family="sans"
         font-size="10px"
         id="text1690">filter_immunity_protein</text>
    </g>
    <!-- 9&#45;&gt;20 -->
    <g
       id="edge31"
       class="edge">
      <title
         id="title1693">9-&gt;20</title>
      <path
         fill="none"
         stroke="#808080"
         stroke-width="2"
         d="M 480.25,-800.61 C 368.27,-783.21 138,-738.7 138,-667 c 0,0 0,0 0,74 0,42.41 -20.4,87.98 -35.4,115.74"
         id="path1695" />
      <polygon
         fill="#808080"
         stroke="#808080"
         stroke-width="2"
         points="99.37,-478.65 105.49,-475.25 97.57,-468.21 "
         id="polygon1697" />
    </g>
    <!-- 27 -->
    <g
       id="node28"
       class="node">
      <title
         id="title1700">27</title>
      <path
         fill="none"
         stroke="#56d0d8"
         stroke-width="2"
         stroke-dasharray="5, 2"
         d="m 640.5,-756 c 0,0 -41,0 -41,0 -6,0 -12,6 -12,12 0,0 0,12 0,12 0,6 6,12 12,12 0,0 41,0 41,0 6,0 12,-6 12,-12 0,0 0,-12 0,-12 0,-6 -6,-12 -12,-12"
         id="path1702" />
      <text
         text-anchor="middle"
         x="620"
         y="-735.5"
         font-family="sans"
         font-size="10px"
         id="text1704">filter_CvaB</text>
    </g>
    <!-- 9&#45;&gt;27 -->
    <g
       id="edge41"
       class="edge">
      <title
         id="title1707">9-&gt;27</title>
      <path
         fill="none"
         stroke="#808080"
         stroke-width="2"
         d="m 559.78,-791.7 c 9.97,8.73 22.23,19.46 33.08,28.95"
         id="path1709" />
      <polygon
         fill="#808080"
         stroke="#808080"
         stroke-width="2"
         points="590.62,-760.06 595.23,-765.32 600.45,-756.1 "
         id="polygon1711" />
    </g>
    <!-- 30 -->
    <g
       id="node31"
       class="node">
      <title
         id="title1714">30</title>
      <path
         fill="none"
         stroke="#56d8b9"
         stroke-width="2"
         stroke-dasharray="5, 2"
         d="m 646.5,-324 c 0,0 -63,0 -63,0 -6,0 -12,6 -12,12 0,0 0,12 0,12 0,6 6,12 12,12 0,0 63,0 63,0 6,0 12,-6 12,-12 0,0 0,-12 0,-12 0,-6 -6,-12 -12,-12"
         id="path1716" />
      <text
         text-anchor="middle"
         x="615"
         y="-303.5"
         font-family="sans"
         font-size="10px"
         id="text1718">filter_CvaB_hits</text>
    </g>
    <!-- 9&#45;&gt;30 -->
    <g
       id="edge47"
       class="edge">
      <title
         id="title1721">9-&gt;30</title>
      <path
         fill="none"
         stroke="#808080"
         stroke-width="2"
         d="m 543.84,-791.61 c 5.56,26.67 15.16,79.34 15.16,124.61 0,0 0,0 0,218 0,43.09 22.6,88.74 39.08,116.3"
         id="path1723" />
      <polygon
         fill="#808080"
         stroke="#808080"
         stroke-width="2"
         points="595.17,-330.75 601.13,-334.42 603.4,-324.07 "
         id="polygon1725" />
    </g>
    <!-- 10 -->
    <!-- 10&#45;&gt;9 -->
    <!-- 11 -->
    <!-- 11&#45;&gt;9 -->
    <!-- 12 -->
    <!-- 12&#45;&gt;9 -->
    <!-- 13 -->
    <g
       id="node14"
       class="node">
      <title
         id="title1776">13</title>
      <path
         fill="none"
         stroke="#d87556"
         stroke-width="2"
         stroke-dasharray="5, 2"
         d="m 841.5,-900 c 0,0 -61,0 -61,0 -6,0 -12,6 -12,12 0,0 0,12 0,12 0,6 6,12 12,12 0,0 61,0 61,0 6,0 12,-6 12,-12 0,0 0,-12 0,-12 0,-6 -6,-12 -12,-12"
         id="path1778" />
      <text
         text-anchor="middle"
         x="811"
         y="-879.5"
         font-family="sans"
         font-size="10px"
         id="text1780">microcin_signal</text>
    </g>
    <!-- 13&#45;&gt;9 -->
    <g
       id="edge21"
       class="edge">
      <title
         id="title1783">13-&gt;9</title>
      <path
         fill="none"
         stroke="#808080"
         stroke-width="2"
         d="m 768.23,-866.72 c -3.11,0.95 -6.21,1.86 -9.23,2.72 -49.57,14.08 -106.12,27.7 -149.34,37.61"
         id="path1785" />
      <polygon
         fill="#808080"
         stroke="#808080"
         stroke-width="2"
         points="608.79,-829.78 610.35,-822.95 599.82,-824.14 "
         id="polygon1787" />
    </g>
    <!-- 14&#45;&gt;4 -->
    <g
       id="edge14"
       class="edge">
      <title
         id="title1790">14-&gt;4</title>
      <path
         fill="none"
         stroke="#808080"
         stroke-width="2"
         d="m 1085.22,-647.88 c -17.85,9.33 -40.12,20.96 -59.22,30.94"
         id="path1792" />
      <polygon
         fill="#808080"
         stroke="#808080"
         stroke-width="2"
         points="1024.15,-619.92 1027.39,-613.72 1016.91,-612.19 "
         id="polygon1794" />
    </g>
    <!-- 15&#45;&gt;14 -->
    <g
       id="edge23"
       class="edge">
      <title
         id="title1797">15-&gt;14</title>
      <path
         fill="none"
         stroke="#808080"
         stroke-width="2"
         d="m 1123.27,-719.7 c -0.77,7.72 -1.7,16.99 -2.56,25.59"
         id="path1799" />
      <polygon
         fill="#808080"
         stroke="#808080"
         stroke-width="2"
         points="1117.22,-694.4 1124.19,-693.71 1119.71,-684.1 "
         id="polygon1801" />
    </g>
    <!-- 16 -->
    <g
       id="node17"
       class="node">
      <title
         id="title1804">16</title>
      <path
         fill="none"
         stroke="#56a2d8"
         stroke-width="2"
         stroke-dasharray="5, 2"
         d="m 478.5,-324 c 0,0 -143,0 -143,0 -6,0 -12,6 -12,12 0,0 0,12 0,12 0,6 6,12 12,12 0,0 143,0 143,0 6,0 12,-6 12,-12 0,0 0,-12 0,-12 0,-6 -6,-12 -12,-12"
         id="path1806" />
      <text
         text-anchor="middle"
         x="407"
         y="-303.5"
         font-family="sans"
         font-size="10px"
         id="text1808">blast_v_hmmer_immunity_protein</text>
    </g>
    <!-- 16&#45;&gt;1 -->
    <g
       id="edge5"
       class="edge">
      <title
         id="title1811">16-&gt;1</title>
      <path
         fill="none"
         stroke="#808080"
         stroke-width="2"
         d="m 407,-287.85 c 0,37.02 0,124.67 0,169.46"
         id="path1813" />
      <polygon
         fill="#808080"
         stroke="#808080"
         stroke-width="2"
         points="403.5,-118.23 410.5,-118.23 407,-108.23 "
         id="polygon1815" />
    </g>
    <!-- 16&#45;&gt;3 -->
    <g
       id="edge9"
       class="edge">
      <title
         id="title1818">16-&gt;3</title>
      <path
         fill="none"
         stroke="#808080"
         stroke-width="2"
         d="m 457.62,-287.97 c 31.82,10.71 72.79,24.5 104.95,35.32"
         id="path1820" />
      <polygon
         fill="#808080"
         stroke="#808080"
         stroke-width="2"
         points="561.65,-249.26 563.89,-255.89 572.25,-249.39 "
         id="polygon1822" />
    </g>
    <!-- 17 -->
    <g
       id="node18"
       class="node">
      <title
         id="title1825">17</title>
      <path
         fill="none"
         stroke="#70d856"
         stroke-width="2"
         stroke-dasharray="5, 2"
         d="m 474,-396 c 0,0 -118,0 -118,0 -6,0 -12,6 -12,12 0,0 0,12 0,12 0,6 6,12 12,12 0,0 118,0 118,0 6,0 12,-6 12,-12 0,0 0,-12 0,-12 0,-6 -6,-12 -12,-12"
         id="path1827" />
      <text
         text-anchor="middle"
         x="415"
         y="-375.5"
         font-family="sans"
         font-size="10px"
         id="text1829">buildhmm_immunity_protein</text>
    </g>
    <!-- 17&#45;&gt;16 -->
    <g
       id="edge26"
       class="edge">
      <title
         id="title1832">17-&gt;16</title>
      <path
         fill="none"
         stroke="#808080"
         stroke-width="2"
         d="m 413.02,-359.7 c -0.88,7.72 -1.94,16.99 -2.92,25.59"
         id="path1834" />
      <polygon
         fill="#808080"
         stroke="#808080"
         stroke-width="2"
         points="406.61,-334.44 413.57,-333.64 408.95,-324.1 "
         id="polygon1836" />
    </g>
    <!-- 18 -->
    <g
       id="node19"
       class="node">
      <title
         id="title1839">18</title>
      <path
         fill="none"
         stroke="#5692d8"
         stroke-width="2"
         stroke-dasharray="5, 2"
         d="m 480.5,-468 c 0,0 -93,0 -93,0 -6,0 -12,6 -12,12 0,0 0,12 0,12 0,6 6,12 12,12 0,0 93,0 93,0 6,0 12,-6 12,-12 0,0 0,-12 0,-12 0,-6 -6,-12 -12,-12"
         id="path1841" />
      <text
         text-anchor="middle"
         x="434"
         y="-447.5"
         font-family="sans"
         font-size="10px"
         id="text1843">msa_immunity_protein</text>
    </g>
    <!-- 18&#45;&gt;17 -->
    <g
       id="edge29"
       class="edge">
      <title
         id="title1846">18-&gt;17</title>
      <path
         fill="none"
         stroke="#808080"
         stroke-width="2"
         d="m 429.3,-431.7 c -2.11,7.8 -4.66,17.19 -7.02,25.87"
         id="path1848" />
      <polygon
         fill="#808080"
         stroke="#808080"
         stroke-width="2"
         points="418.88,-406.67 425.64,-404.84 419.64,-396.1 "
         id="polygon1850" />
    </g>
    <!-- 19 -->
    <g
       id="node20"
       class="node">
      <title
         id="title1853">19</title>
      <path
         fill="none"
         stroke="#56d87b"
         stroke-width="2"
         stroke-dasharray="5, 2"
         d="m 330,-540 c 0,0 -100,0 -100,0 -6,0 -12,6 -12,12 0,0 0,12 0,12 0,6 6,12 12,12 0,0 100,0 100,0 6,0 12,-6 12,-12 0,0 0,-12 0,-12 0,-6 -6,-12 -12,-12"
         id="path1855" />
      <text
         text-anchor="middle"
         x="280"
         y="-519.5"
         font-family="sans"
         font-size="10px"
         id="text1857">write_immunity_proteins</text>
    </g>
    <!-- 19&#45;&gt;18 -->
    <g
       id="edge30"
       class="edge">
      <title
         id="title1860">19-&gt;18</title>
      <path
         fill="none"
         stroke="#808080"
         stroke-width="2"
         d="m 317.67,-503.88 c 20.96,9.53 47.23,21.47 69.51,31.6"
         id="path1862" />
      <polygon
         fill="#808080"
         stroke="#808080"
         stroke-width="2"
         points="385.9,-469.02 388.79,-475.39 396.45,-468.07 "
         id="polygon1864" />
    </g>
    <!-- 21 -->
    <g
       id="node22"
       class="node">
      <title
         id="title1867">21</title>
      <path
         fill="none"
         stroke="#5663d8"
         stroke-width="2"
         stroke-dasharray="5, 2"
         d="m 289.5,-396 c 0,0 -95,0 -95,0 -6,0 -12,6 -12,12 0,0 0,12 0,12 0,6 6,12 12,12 0,0 95,0 95,0 6,0 12,-6 12,-12 0,0 0,-12 0,-12 0,-6 -6,-12 -12,-12"
         id="path1869" />
      <text
         text-anchor="middle"
         x="242"
         y="-375.5"
         font-family="sans"
         font-size="10px"
         id="text1871">blast_immunity_protein</text>
    </g>
    <!-- 19&#45;&gt;21 -->
    <g
       id="edge32"
       class="edge">
      <title
         id="title1874">19-&gt;21</title>
      <path
         fill="none"
         stroke="#808080"
         stroke-width="2"
         d="m 233.48,-503.85 c -15.73,8.29 -31.56,19.97 -40.48,35.85 -7.84,13.95 -5.83,21.1 0,36 4.2,10.72 11.69,20.57 19.58,28.8"
         id="path1876" />
      <polygon
         fill="#808080"
         stroke="#808080"
         stroke-width="2"
         points="210.24,-400.59 215.12,-405.61 219.85,-396.13 "
         id="polygon1878" />
    </g>
    <!-- 22 -->
    <g
       id="node23"
       class="node">
      <title
         id="title1881">22</title>
      <path
         fill="none"
         stroke="#80d856"
         stroke-width="2"
         stroke-dasharray="5, 2"
         d="m 345.5,-468 c 0,0 -131,0 -131,0 -6,0 -12,6 -12,12 0,0 0,12 0,12 0,6 6,12 12,12 0,0 131,0 131,0 6,0 12,-6 12,-12 0,0 0,-12 0,-12 0,-6 -6,-12 -12,-12"
         id="path1883" />
      <text
         text-anchor="middle"
         x="280"
         y="-447.5"
         font-family="sans"
         font-size="10px"
         id="text1885">makeblastdb_immunity_protein</text>
    </g>
    <!-- 19&#45;&gt;22 -->
    <g
       id="edge35"
       class="edge">
      <title
         id="title1888">19-&gt;22</title>
      <path
         fill="none"
         stroke="#808080"
         stroke-width="2"
         d="m 280,-503.7 c 0,7.72 0,16.99 0,25.59"
         id="path1890" />
      <polygon
         fill="#808080"
         stroke="#808080"
         stroke-width="2"
         points="276.5,-478.1 283.5,-478.1 280,-468.1 "
         id="polygon1892" />
    </g>
    <!-- 20&#45;&gt;16 -->
    <g
       id="edge27"
       class="edge">
      <title
         id="title1895">20-&gt;16</title>
      <path
         fill="none"
         stroke="#808080"
         stroke-width="2"
         d="m 98.82,-431.68 c 14.87,20.4 42.35,53.76 74.18,71.68 42.77,24.07 95.75,37.22 140.47,44.39"
         id="path1897" />
      <polygon
         fill="#808080"
         stroke="#808080"
         stroke-width="2"
         points="313.06,-312.14 314.11,-319.06 323.47,-314.09 "
         id="polygon1899" />
    </g>
    <!-- 20&#45;&gt;21 -->
    <g
       id="edge34"
       class="edge">
      <title
         id="title1902">20-&gt;21</title>
      <path
         fill="none"
         stroke="#808080"
         stroke-width="2"
         d="m 124.92,-431.88 c 21.09,9.53 47.54,21.47 69.95,31.6"
         id="path1904" />
      <polygon
         fill="#808080"
         stroke="#808080"
         stroke-width="2"
         points="193.65,-396.99 196.53,-403.37 204.21,-396.07 "
         id="polygon1906" />
    </g>
    <!-- 21&#45;&gt;16 -->
    <g
       id="edge28"
       class="edge">
      <title
         id="title1909">21-&gt;16</title>
      <path
         fill="none"
         stroke="#808080"
         stroke-width="2"
         d="m 282.36,-359.88 c 22.66,9.62 51.11,21.69 75.11,31.87"
         id="path1911" />
      <polygon
         fill="#808080"
         stroke="#808080"
         stroke-width="2"
         points="356.19,-324.75 358.93,-331.2 366.77,-324.07 "
         id="polygon1913" />
    </g>
    <!-- 22&#45;&gt;21 -->
    <g
       id="edge33"
       class="edge">
      <title
         id="title1916">22-&gt;21</title>
      <path
         fill="none"
         stroke="#808080"
         stroke-width="2"
         d="m 270.61,-431.7 c -4.37,8.06 -9.67,17.81 -14.51,26.72"
         id="path1918" />
      <polygon
         fill="#808080"
         stroke="#808080"
         stroke-width="2"
         points="252.98,-406.56 259.13,-403.22 251.29,-396.1 "
         id="polygon1920" />
    </g>
    <!-- 23 -->
    <g
       id="node24"
       class="node">
      <title
         id="title1923">23</title>
      <path
         fill="none"
         stroke="#56d85b"
         stroke-width="2"
         stroke-dasharray="5, 2"
         d="m 742.5,-612 c 0,0 -91,0 -91,0 -6,0 -12,6 -12,12 0,0 0,12 0,12 0,6 6,12 12,12 0,0 91,0 91,0 6,0 12,-6 12,-12 0,0 0,-12 0,-12 0,-6 -6,-12 -12,-12"
         id="path1925" />
      <text
         text-anchor="middle"
         x="697"
         y="-591.5"
         font-family="sans"
         font-size="10px"
         id="text1927">blast_v_hmmer_CvaB</text>
    </g>
    <!-- 23&#45;&gt;3 -->
    <g
       id="edge10"
       class="edge">
      <title
         id="title1930">23-&gt;3</title>
      <path
         fill="none"
         stroke="#808080"
         stroke-width="2"
         d="m 730.31,-575.87 c 39.1,22.78 98.69,66.98 98.69,124.87 0,0 0,0 0,74 0,77.35 -98.26,115.07 -161.62,131.36"
         id="path1932" />
      <polygon
         fill="#808080"
         stroke="#808080"
         stroke-width="2"
         points="666.4,-249.01 668.08,-242.21 657.54,-243.21 "
         id="polygon1934" />
    </g>
    <!-- 32 -->
    <g
       id="node33"
       class="node">
      <title
         id="title1937">32</title>
      <path
         fill="none"
         stroke="#d8c356"
         stroke-width="2"
         stroke-dasharray="5, 2"
         d="m 728,-540 c 0,0 -82,0 -82,0 -6,0 -12,6 -12,12 0,0 0,12 0,12 0,6 6,12 12,12 0,0 82,0 82,0 6,0 12,-6 12,-12 0,0 0,-12 0,-12 0,-6 -6,-12 -12,-12"
         id="path1939" />
      <text
         text-anchor="middle"
         x="687"
         y="-519.5"
         font-family="sans"
         font-size="10px"
         id="text1941">best_Cvab_headers</text>
    </g>
    <!-- 23&#45;&gt;32 -->
    <g
       id="edge50"
       class="edge">
      <title
         id="title1944">23-&gt;32</title>
      <path
         fill="none"
         stroke="#808080"
         stroke-width="2"
         d="m 694.53,-575.7 c -1.1,7.72 -2.43,16.99 -3.66,25.59"
         id="path1946" />
      <polygon
         fill="#808080"
         stroke="#808080"
         stroke-width="2"
         points="687.39,-550.5 694.32,-549.51 689.44,-540.1 "
         id="polygon1948" />
    </g>
    <!-- 24 -->
    <g
       id="node25"
       class="node">
      <title
         id="title1951">24</title>
      <path
         fill="none"
         stroke="#d85656"
         stroke-width="2"
         stroke-dasharray="5, 2"
         d="m 827,-684 c 0,0 -66,0 -66,0 -6,0 -12,6 -12,12 0,0 0,12 0,12 0,6 6,12 12,12 0,0 66,0 66,0 6,0 12,-6 12,-12 0,0 0,-12 0,-12 0,-6 -6,-12 -12,-12"
         id="path1953" />
      <text
         text-anchor="middle"
         x="794"
         y="-663.5"
         font-family="sans"
         font-size="10px"
         id="text1955">buildhmm_CvaB</text>
    </g>
    <!-- 24&#45;&gt;23 -->
    <g
       id="edge36"
       class="edge">
      <title
         id="title1958">24-&gt;23</title>
      <path
         fill="none"
         stroke="#808080"
         stroke-width="2"
         d="m 770.02,-647.7 c -12.33,8.9 -27.54,19.88 -40.87,29.5"
         id="path1960" />
      <polygon
         fill="#808080"
         stroke="#808080"
         stroke-width="2"
         points="726.76,-620.79 730.86,-615.12 720.7,-612.1 "
         id="polygon1962" />
    </g>
    <!-- 25 -->
    <g
       id="node26"
       class="node">
      <title
         id="title1965">25</title>
      <path
         fill="none"
         stroke="#56d88a"
         stroke-width="2"
         stroke-dasharray="5, 2"
         d="m 844.5,-756 c 0,0 -41,0 -41,0 -6,0 -12,6 -12,12 0,0 0,12 0,12 0,6 6,12 12,12 0,0 41,0 41,0 6,0 12,-6 12,-12 0,0 0,-12 0,-12 0,-6 -6,-12 -12,-12"
         id="path1967" />
      <text
         text-anchor="middle"
         x="824"
         y="-735.5"
         font-family="sans"
         font-size="10px"
         id="text1969">msa_CvaB</text>
    </g>
    <!-- 25&#45;&gt;24 -->
    <g
       id="edge39"
       class="edge">
      <title
         id="title1972">25-&gt;24</title>
      <path
         fill="none"
         stroke="#808080"
         stroke-width="2"
         d="m 816.58,-719.7 c -3.37,7.89 -7.45,17.4 -11.2,26.15"
         id="path1974" />
      <polygon
         fill="#808080"
         stroke="#808080"
         stroke-width="2"
         points="802.05,-694.67 808.49,-691.92 801.33,-684.1 "
         id="polygon1976" />
    </g>
    <!-- 33 -->
    <g
       id="node34"
       class="node">
      <title
         id="title1979">33</title>
      <path
         fill="none"
         stroke="#afd856"
         stroke-width="2"
         stroke-dasharray="5, 2"
         d="m 753,-396 c 0,0 -98,0 -98,0 -6,0 -12,6 -12,12 0,0 0,12 0,12 0,6 6,12 12,12 0,0 98,0 98,0 6,0 12,-6 12,-12 0,0 0,-12 0,-12 0,-6 -6,-12 -12,-12"
         id="path1981" />
      <text
         text-anchor="middle"
         x="704"
         y="-375.5"
         font-family="sans"
         font-size="10px"
         id="text1983">align_with_verifiedCvab</text>
    </g>
    <!-- 25&#45;&gt;33 -->
    <g
       id="edge52"
       class="edge">
      <title
         id="title1986">25-&gt;33</title>
      <path
         fill="none"
         stroke="#808080"
         stroke-width="2"
         d="m 833.95,-719.98 c 5.32,10.09 11.32,23.34 14.05,35.98 3.38,15.64 3.89,20.48 0,36 -24.46,97.5 -91.78,198.27 -124.98,243.88"
         id="path1988" />
      <polygon
         fill="#808080"
         stroke="#808080"
         stroke-width="2"
         points="720.15,-406.13 725.79,-401.98 717.04,-396 "
         id="polygon1990" />
    </g>
    <!-- 26 -->
    <g
       id="node27"
       class="node">
      <title
         id="title1993">26</title>
      <path
         fill="none"
         stroke="#d8a456"
         stroke-width="2"
         stroke-dasharray="5, 2"
         d="m 795,-828 c 0,0 -44,0 -44,0 -6,0 -12,6 -12,12 0,0 0,12 0,12 0,6 6,12 12,12 0,0 44,0 44,0 6,0 12,-6 12,-12 0,0 0,-12 0,-12 0,-6 -6,-12 -12,-12"
         id="path1995" />
      <text
         text-anchor="middle"
         x="773"
         y="-807.5"
         font-family="sans"
         font-size="10px"
         id="text1997">write_CvaB</text>
    </g>
    <!-- 26&#45;&gt;25 -->
    <g
       id="edge40"
       class="edge">
      <title
         id="title2000">26-&gt;25</title>
      <path
         fill="none"
         stroke="#808080"
         stroke-width="2"
         d="m 785.61,-791.7 c 5.99,8.23 13.27,18.22 19.87,27.28"
         id="path2002" />
      <polygon
         fill="#808080"
         stroke="#808080"
         stroke-width="2"
         points="802.82,-762.13 808.48,-766.25 811.54,-756.1 "
         id="polygon2004" />
    </g>
    <!-- 29 -->
    <g
       id="node30"
       class="node">
      <title
         id="title2007">29</title>
      <path
         fill="none"
         stroke="#ced856"
         stroke-width="2"
         stroke-dasharray="5, 2"
         d="m 761.5,-756 c 0,0 -79,0 -79,0 -6,0 -12,6 -12,12 0,0 0,12 0,12 0,6 6,12 12,12 0,0 79,0 79,0 6,0 12,-6 12,-12 0,0 0,-12 0,-12 0,-6 -6,-12 -12,-12"
         id="path2009" />
      <text
         text-anchor="middle"
         x="722"
         y="-735.5"
         font-family="sans"
         font-size="10px"
         id="text2011">makeblastdb_CvaB</text>
    </g>
    <!-- 26&#45;&gt;29 -->
    <g
       id="edge44"
       class="edge">
      <title
         id="title2014">26-&gt;29</title>
      <path
         fill="none"
         stroke="#808080"
         stroke-width="2"
         d="m 760.39,-791.7 c -5.99,8.23 -13.27,18.22 -19.87,27.28"
         id="path2016" />
      <polygon
         fill="#808080"
         stroke="#808080"
         stroke-width="2"
         points="737.52,-766.25 743.18,-762.13 734.46,-756.1 "
         id="polygon2018" />
    </g>
    <!-- 27&#45;&gt;23 -->
    <g
       id="edge37"
       class="edge">
      <title
         id="title2021">27-&gt;23</title>
      <path
         fill="none"
         stroke="#808080"
         stroke-width="2"
         d="m 624.77,-719.88 c 5.53,18.47 15.67,48.38 29.23,71.88 5.65,9.8 13.07,19.66 20.15,28.18"
         id="path2023" />
      <polygon
         fill="#808080"
         stroke="#808080"
         stroke-width="2"
         points="671.6,-617.42 676.91,-621.98 680.77,-612.12 "
         id="polygon2025" />
    </g>
    <!-- 28 -->
    <g
       id="node29"
       class="node">
      <title
         id="title2028">28</title>
      <path
         fill="none"
         stroke="#8fd856"
         stroke-width="2"
         stroke-dasharray="5, 2"
         d="m 719,-684 c 0,0 -44,0 -44,0 -6,0 -12,6 -12,12 0,0 0,12 0,12 0,6 6,12 12,12 0,0 44,0 44,0 6,0 12,-6 12,-12 0,0 0,-12 0,-12 0,-6 -6,-12 -12,-12"
         id="path2030" />
      <text
         text-anchor="middle"
         x="697"
         y="-663.5"
         font-family="sans"
         font-size="10px"
         id="text2032">blast_CvaB</text>
    </g>
    <!-- 27&#45;&gt;28 -->
    <g
       id="edge43"
       class="edge">
      <title
         id="title2035">27-&gt;28</title>
      <path
         fill="none"
         stroke="#808080"
         stroke-width="2"
         d="m 639.03,-719.7 c 9.51,8.65 21.18,19.25 31.54,28.67"
         id="path2037" />
      <polygon
         fill="#808080"
         stroke="#808080"
         stroke-width="2"
         points="668.43,-688.24 673.14,-693.42 678.19,-684.1 "
         id="polygon2039" />
    </g>
    <!-- 31 -->
    <g
       id="node32"
       class="node">
      <title
         id="title2042">31</title>
      <path
         fill="none"
         stroke="#5682d8"
         stroke-width="2"
         stroke-dasharray="5, 2"
         d="m 694,-468 c 0,0 -68,0 -68,0 -6,0 -12,6 -12,12 0,0 0,12 0,12 0,6 6,12 12,12 0,0 68,0 68,0 6,0 12,-6 12,-12 0,0 0,-12 0,-12 0,-6 -6,-12 -12,-12"
         id="path2044" />
      <text
         text-anchor="middle"
         x="660"
         y="-447.5"
         font-family="sans"
         font-size="10px"
         id="text2046">best_Cvab_fasta</text>
    </g>
    <!-- 27&#45;&gt;31 -->
    <g
       id="edge49"
       class="edge">
      <title
         id="title2049">27-&gt;31</title>
      <path
         fill="none"
         stroke="#808080"
         stroke-width="2"
         d="m 617.19,-719.81 c -5.74,39.31 -16.36,138.37 7.81,215.81 3.02,9.69 8.4,19.26 14.04,27.55"
         id="path2051" />
      <polygon
         fill="#808080"
         stroke="#808080"
         stroke-width="2"
         points="636.23,-474.37 641.89,-478.48 644.93,-468.33 "
         id="polygon2053" />
    </g>
    <!-- 28&#45;&gt;23 -->
    <g
       id="edge38"
       class="edge">
      <title
         id="title2056">28-&gt;23</title>
      <path
         fill="none"
         stroke="#808080"
         stroke-width="2"
         d="m 697,-647.7 c 0,7.72 0,16.99 0,25.59"
         id="path2058" />
      <polygon
         fill="#808080"
         stroke="#808080"
         stroke-width="2"
         points="693.5,-622.1 700.5,-622.1 697,-612.1 "
         id="polygon2060" />
    </g>
    <!-- 29&#45;&gt;28 -->
    <g
       id="edge42"
       class="edge">
      <title
         id="title2063">29-&gt;28</title>
      <path
         fill="none"
         stroke="#808080"
         stroke-width="2"
         d="m 715.82,-719.7 c -2.82,7.89 -6.21,17.4 -9.34,26.15"
         id="path2065" />
      <polygon
         fill="#808080"
         stroke="#808080"
         stroke-width="2"
         points="703.18,-694.7 709.77,-692.34 703.11,-684.1 "
         id="polygon2067" />
    </g>
    <!-- 30&#45;&gt;3 -->
    <g
       id="edge11"
       class="edge">
      <title
         id="title2070">30-&gt;3</title>
      <path
         fill="none"
         stroke="#808080"
         stroke-width="2"
         d="m 615,-287.7 c 0,7.72 0,16.99 0,25.59"
         id="path2072" />
      <polygon
         fill="#808080"
         stroke="#808080"
         stroke-width="2"
         points="611.5,-262.1 618.5,-262.1 615,-252.1 "
         id="polygon2074" />
    </g>
    <!-- 31&#45;&gt;30 -->
    <g
       id="edge45"
       class="edge">
      <title
         id="title2077">31-&gt;30</title>
      <path
         fill="none"
         stroke="#808080"
         stroke-width="2"
         d="m 650.22,-431.8 c -5.43,10.15 -11.93,23.4 -16.22,35.8 -7.01,20.25 -11.92,44.02 -15,61.9"
         id="path2079" />
      <polygon
         fill="#808080"
         stroke="#808080"
         stroke-width="2"
         points="615.52,-334.5 622.43,-333.37 617.37,-324.07 "
         id="polygon2081" />
    </g>
    <!-- 31&#45;&gt;33 -->
    <g
       id="edge51"
       class="edge">
      <title
         id="title2084">31-&gt;33</title>
      <path
         fill="none"
         stroke="#808080"
         stroke-width="2"
         d="m 670.88,-431.7 c 5.11,8.14 11.32,18.01 16.96,27"
         id="path2086" />
      <polygon
         fill="#808080"
         stroke="#808080"
         stroke-width="2"
         points="684.96,-402.71 690.89,-406.43 693.25,-396.1 "
         id="polygon2088" />
    </g>
    <!-- 32&#45;&gt;31 -->
    <g
       id="edge48"
       class="edge">
      <title
         id="title2091">32-&gt;31</title>
      <path
         fill="none"
         stroke="#808080"
         stroke-width="2"
         d="m 680.33,-503.7 c -3.04,7.89 -6.71,17.4 -10.09,26.15"
         id="path2093" />
      <polygon
         fill="#808080"
         stroke="#808080"
         stroke-width="2"
         points="666.93,-478.69 673.46,-476.17 666.6,-468.1 "
         id="polygon2095" />
    </g>
    <!-- 33&#45;&gt;30 -->
    <g
       id="edge46"
       class="edge">
      <title
         id="title2098">33-&gt;30</title>
      <path
         fill="none"
         stroke="#808080"
         stroke-width="2"
         d="m 682,-359.7 c -11.21,8.82 -25,19.67 -37.15,29.23"
         id="path2100" />
      <polygon
         fill="#808080"
         stroke="#808080"
         stroke-width="2"
         points="642.44,-333.04 646.77,-327.54 636.75,-324.1 "
         id="polygon2102" />
    </g>
    <!-- 34&#45;&gt;0 -->
    <g
       id="edge2"
       class="edge">
      <title
         id="title2105">34-&gt;0</title>
      <path
         fill="none"
         stroke="#808080"
         stroke-width="2"
         d="m 506.91,-71.7 c -6.83,8.4 -15.17,18.63 -22.67,27.84"
         id="path2107" />
      <polygon
         fill="#808080"
         stroke="#808080"
         stroke-width="2"
         points="481.53,-46.07 486.96,-41.65 477.93,-36.1 "
         id="polygon2109" />
    </g>
    <path
       id="path2365"
       d="m 627.69156,-912.06337 c 0,0 -166.99999,0 -166.99999,0 -6,0 -12,6 -12,12 0,0 0,12 0,12 0,6 6,12 12,12 0,0 166.99999,0 166.99999,0 6.00001,0 12,-6 12,-12 0,0 0,-12 0,-12 0,-6 -5.99999,-12 -12,-12"
       stroke-dasharray="5, 2"
       stroke-width="2"
       stroke="#56d0d8"
       fill="none" />
    <g
       transform="translate(4.1915859,-12.06342)"
       class="edge"
       id="edge19">
      <title
         id="title2372">11-&gt;9</title>
      <path
         id="path2374"
         d="m 540,-863.7 c 0,7.72 0,16.99 0,25.59"
         stroke-width="2"
         stroke="#808080"
         fill="none" />
      <polygon
         id="polygon2376"
         points="543.5,-838.1 540,-828.1 536.5,-838.1 "
         stroke-width="2"
         stroke="#808080"
         fill="#808080" />
    </g>
  </g>
</svg>
