<?xml version="1.0" encoding="UTF-8" standalone="no"?>
<!DOCTYPE svg PUBLIC "-//W3C//DTD SVG 1.1//EN"
 "http://www.w3.org/Graphics/SVG/1.1/DTD/svg11.dtd">
<!-- Generated by graphviz version 2.46.1 (0)
 -->
<!-- Title: snakemake_dag Pages: 1 -->
<svg width="396pt" height="620pt"
 viewBox="0.00 0.00 395.50 620.00" xmlns="http://www.w3.org/2000/svg" xmlns:xlink="http://www.w3.org/1999/xlink">
<g id="graph0" class="graph" transform="scale(1 1) rotate(0) translate(4 616)">
<title>snakemake_dag</title>
<polygon fill="white" stroke="transparent" points="-4,4 -4,-616 391.5,-616 391.5,4 -4,4"/>
<!-- 0 -->
<g id="node1" class="node">
<title>0</title>
<path fill="none" stroke="#56d8a2" stroke-width="2" d="M208.5,-36C208.5,-36 178.5,-36 178.5,-36 172.5,-36 166.5,-30 166.5,-24 166.5,-24 166.5,-12 166.5,-12 166.5,-6 172.5,0 178.5,0 178.5,0 208.5,0 208.5,0 214.5,0 220.5,-6 220.5,-12 220.5,-12 220.5,-24 220.5,-24 220.5,-30 214.5,-36 208.5,-36"/>
<text text-anchor="middle" x="193.5" y="-15.5" font-family="sans" font-size="10.00">final</text>
</g>
<!-- 1 -->
<g id="node2" class="node">
<title>1</title>
<path fill="none" stroke="#56d87b" stroke-width="2" d="M250.5,-108C250.5,-108 136.5,-108 136.5,-108 130.5,-108 124.5,-102 124.5,-96 124.5,-96 124.5,-84 124.5,-84 124.5,-78 130.5,-72 136.5,-72 136.5,-72 250.5,-72 250.5,-72 256.5,-72 262.5,-78 262.5,-84 262.5,-84 262.5,-96 262.5,-96 262.5,-102 256.5,-108 250.5,-108"/>
<text text-anchor="middle" x="193.5" y="-87.5" font-family="sans" font-size="10.00">putative_immunity_proteins</text>
</g>
<!-- 1&#45;&gt;0 -->
<g id="edge1" class="edge">
<title>1&#45;&gt;0</title>
<path fill="none" stroke="grey" stroke-width="2" d="M193.5,-71.7C193.5,-63.98 193.5,-54.71 193.5,-46.11"/>
<polygon fill="grey" stroke="grey" stroke-width="2" points="197,-46.1 193.5,-36.1 190,-46.1 197,-46.1"/>
</g>
<!-- 2 -->
<g id="node3" class="node">
<title>2</title>
<path fill="none" stroke="#d87d56" stroke-width="2" d="M229.5,-324C229.5,-324 185.5,-324 185.5,-324 179.5,-324 173.5,-318 173.5,-312 173.5,-312 173.5,-300 173.5,-300 173.5,-294 179.5,-288 185.5,-288 185.5,-288 229.5,-288 229.5,-288 235.5,-288 241.5,-294 241.5,-300 241.5,-300 241.5,-312 241.5,-312 241.5,-318 235.5,-324 229.5,-324"/>
<text text-anchor="middle" x="207.5" y="-303.5" font-family="sans" font-size="10.00">getBestHits</text>
</g>
<!-- 2&#45;&gt;1 -->
<g id="edge2" class="edge">
<title>2&#45;&gt;1</title>
<path fill="none" stroke="grey" stroke-width="2" d="M173.32,-299.11C146.78,-292.55 111.7,-279.07 94.5,-252 63.61,-203.39 121.61,-145.76 161.14,-114.32"/>
<polygon fill="grey" stroke="grey" stroke-width="2" points="163.5,-116.92 169.25,-108.02 159.21,-111.39 163.5,-116.92"/>
</g>
<!-- 3 -->
<g id="node4" class="node">
<title>3</title>
<path fill="none" stroke="#59d856" stroke-width="2" d="M211,-252C211,-252 116,-252 116,-252 110,-252 104,-246 104,-240 104,-240 104,-228 104,-228 104,-222 110,-216 116,-216 116,-216 211,-216 211,-216 217,-216 223,-222 223,-228 223,-228 223,-240 223,-240 223,-246 217,-252 211,-252"/>
<text text-anchor="middle" x="163.5" y="-231.5" font-family="sans" font-size="10.00">subcellular_localization</text>
</g>
<!-- 2&#45;&gt;3 -->
<g id="edge9" class="edge">
<title>2&#45;&gt;3</title>
<path fill="none" stroke="grey" stroke-width="2" d="M196.62,-287.7C191.51,-279.56 185.3,-269.69 179.66,-260.7"/>
<polygon fill="grey" stroke="grey" stroke-width="2" points="182.54,-258.71 174.25,-252.1 176.61,-262.43 182.54,-258.71"/>
</g>
<!-- 5 -->
<g id="node6" class="node">
<title>5</title>
<path fill="none" stroke="#567bd8" stroke-width="2" d="M281,-180C281,-180 192,-180 192,-180 186,-180 180,-174 180,-168 180,-168 180,-156 180,-156 180,-150 186,-144 192,-144 192,-144 281,-144 281,-144 287,-144 293,-150 293,-156 293,-156 293,-168 293,-168 293,-174 287,-180 281,-180"/>
<text text-anchor="middle" x="236.5" y="-159.5" font-family="sans" font-size="10.00">transmembrane_helix</text>
</g>
<!-- 2&#45;&gt;5 -->
<g id="edge11" class="edge">
<title>2&#45;&gt;5</title>
<path fill="none" stroke="grey" stroke-width="2" d="M217.65,-287.98C223.12,-277.89 229.37,-264.64 232.5,-252 237.54,-231.64 238.37,-207.87 238.02,-190.02"/>
<polygon fill="grey" stroke="grey" stroke-width="2" points="241.52,-189.9 237.7,-180.01 234.53,-190.12 241.52,-189.9"/>
</g>
<!-- 9 -->
<g id="node10" class="node">
<title>9</title>
<path fill="none" stroke="#56d8c9" stroke-width="2" d="M363.5,-252C363.5,-252 313.5,-252 313.5,-252 307.5,-252 301.5,-246 301.5,-240 301.5,-240 301.5,-228 301.5,-228 301.5,-222 307.5,-216 313.5,-216 313.5,-216 363.5,-216 363.5,-216 369.5,-216 375.5,-222 375.5,-228 375.5,-228 375.5,-240 375.5,-240 375.5,-246 369.5,-252 363.5,-252"/>
<text text-anchor="middle" x="338.5" y="-231.5" font-family="sans" font-size="10.00">bestHitsMSA</text>
</g>
<!-- 2&#45;&gt;9 -->
<g id="edge17" class="edge">
<title>2&#45;&gt;9</title>
<path fill="none" stroke="grey" stroke-width="2" d="M239.55,-287.88C256.99,-278.55 278.77,-266.92 297.44,-256.94"/>
<polygon fill="grey" stroke="grey" stroke-width="2" points="299.16,-259.99 306.33,-252.19 295.86,-253.82 299.16,-259.99"/>
</g>
<!-- 3&#45;&gt;1 -->
<g id="edge3" class="edge">
<title>3&#45;&gt;1</title>
<path fill="none" stroke="grey" stroke-width="2" d="M163.51,-215.68C163.88,-197.56 165.49,-168.4 171.5,-144 173.69,-135.1 177.15,-125.75 180.68,-117.43"/>
<polygon fill="grey" stroke="grey" stroke-width="2" points="183.91,-118.77 184.79,-108.21 177.52,-115.92 183.91,-118.77"/>
</g>
<!-- 4 -->
<g id="node5" class="node">
<title>4</title>
<path fill="none" stroke="#56a2d8" stroke-width="2" d="M375.5,-180C375.5,-180 323.5,-180 323.5,-180 317.5,-180 311.5,-174 311.5,-168 311.5,-168 311.5,-156 311.5,-156 311.5,-150 317.5,-144 323.5,-144 323.5,-144 375.5,-144 375.5,-144 381.5,-144 387.5,-150 387.5,-156 387.5,-156 387.5,-168 387.5,-168 387.5,-174 381.5,-180 375.5,-180"/>
<text text-anchor="middle" x="349.5" y="-159.5" font-family="sans" font-size="10.00">evaluateMSA</text>
</g>
<!-- 4&#45;&gt;1 -->
<g id="edge4" class="edge">
<title>4&#45;&gt;1</title>
<path fill="none" stroke="grey" stroke-width="2" d="M311.34,-143.88C290.11,-134.35 263.49,-122.41 240.93,-112.28"/>
<polygon fill="grey" stroke="grey" stroke-width="2" points="242.09,-108.97 231.54,-108.07 239.23,-115.36 242.09,-108.97"/>
</g>
<!-- 5&#45;&gt;1 -->
<g id="edge5" class="edge">
<title>5&#45;&gt;1</title>
<path fill="none" stroke="grey" stroke-width="2" d="M225.87,-143.7C220.87,-135.56 214.81,-125.69 209.29,-116.7"/>
<polygon fill="grey" stroke="grey" stroke-width="2" points="212.22,-114.79 204.01,-108.1 206.26,-118.46 212.22,-114.79"/>
</g>
<!-- 6 -->
<g id="node7" class="node">
<title>6</title>
<path fill="none" stroke="#56c9d8" stroke-width="2" d="M227,-468C227,-468 188,-468 188,-468 182,-468 176,-462 176,-456 176,-456 176,-444 176,-444 176,-438 182,-432 188,-432 188,-432 227,-432 227,-432 233,-432 239,-438 239,-444 239,-444 239,-456 239,-456 239,-462 233,-468 227,-468"/>
<text text-anchor="middle" x="207.5" y="-447.5" font-family="sans" font-size="10.00">filter_input</text>
</g>
<!-- 6&#45;&gt;2 -->
<g id="edge6" class="edge">
<title>6&#45;&gt;2</title>
<path fill="none" stroke="grey" stroke-width="2" d="M207.5,-431.87C207.5,-407.67 207.5,-363.21 207.5,-334.39"/>
<polygon fill="grey" stroke="grey" stroke-width="2" points="211,-334.19 207.5,-324.19 204,-334.19 211,-334.19"/>
</g>
<!-- 7 -->
<g id="node8" class="node">
<title>7</title>
<path fill="none" stroke="#c6d856" stroke-width="2" d="M277.5,-396C277.5,-396 247.5,-396 247.5,-396 241.5,-396 235.5,-390 235.5,-384 235.5,-384 235.5,-372 235.5,-372 235.5,-366 241.5,-360 247.5,-360 247.5,-360 277.5,-360 277.5,-360 283.5,-360 289.5,-366 289.5,-372 289.5,-372 289.5,-384 289.5,-384 289.5,-390 283.5,-396 277.5,-396"/>
<text text-anchor="middle" x="262.5" y="-375.5" font-family="sans" font-size="10.00">blast</text>
</g>
<!-- 6&#45;&gt;7 -->
<g id="edge13" class="edge">
<title>6&#45;&gt;7</title>
<path fill="none" stroke="grey" stroke-width="2" d="M221.1,-431.7C227.62,-423.39 235.57,-413.28 242.75,-404.14"/>
<polygon fill="grey" stroke="grey" stroke-width="2" points="245.63,-406.13 249.06,-396.1 240.13,-401.81 245.63,-406.13"/>
</g>
<!-- 8 -->
<g id="node9" class="node">
<title>8</title>
<path fill="none" stroke="#d8c356" stroke-width="2" d="M167,-396C167,-396 122,-396 122,-396 116,-396 110,-390 110,-384 110,-384 110,-372 110,-372 110,-366 116,-360 122,-360 122,-360 167,-360 167,-360 173,-360 179,-366 179,-372 179,-372 179,-384 179,-384 179,-390 173,-396 167,-396"/>
<text text-anchor="middle" x="144.5" y="-375.5" font-family="sans" font-size="10.00">hmmsearch</text>
</g>
<!-- 6&#45;&gt;8 -->
<g id="edge16" class="edge">
<title>6&#45;&gt;8</title>
<path fill="none" stroke="grey" stroke-width="2" d="M191.93,-431.7C184.3,-423.22 174.98,-412.86 166.62,-403.58"/>
<polygon fill="grey" stroke="grey" stroke-width="2" points="169.19,-401.2 159.89,-396.1 163.98,-405.88 169.19,-401.2"/>
</g>
<!-- 7&#45;&gt;2 -->
<g id="edge7" class="edge">
<title>7&#45;&gt;2</title>
<path fill="none" stroke="grey" stroke-width="2" d="M248.9,-359.7C242.38,-351.39 234.43,-341.28 227.25,-332.14"/>
<polygon fill="grey" stroke="grey" stroke-width="2" points="229.87,-329.81 220.94,-324.1 224.37,-334.13 229.87,-329.81"/>
</g>
<!-- 8&#45;&gt;2 -->
<g id="edge8" class="edge">
<title>8&#45;&gt;2</title>
<path fill="none" stroke="grey" stroke-width="2" d="M160.07,-359.7C167.7,-351.22 177.02,-340.86 185.38,-331.58"/>
<polygon fill="grey" stroke="grey" stroke-width="2" points="188.02,-333.88 192.11,-324.1 182.81,-329.2 188.02,-333.88"/>
</g>
<!-- 9&#45;&gt;4 -->
<g id="edge10" class="edge">
<title>9&#45;&gt;4</title>
<path fill="none" stroke="grey" stroke-width="2" d="M341.22,-215.7C342.43,-207.98 343.89,-198.71 345.24,-190.11"/>
<polygon fill="grey" stroke="grey" stroke-width="2" points="348.72,-190.53 346.81,-180.1 341.8,-189.44 348.72,-190.53"/>
</g>
<!-- 10 -->
<g id="node11" class="node">
<title>10</title>
<path fill="none" stroke="#d8a456" stroke-width="2" d="M228,-540C228,-540 187,-540 187,-540 181,-540 175,-534 175,-528 175,-528 175,-516 175,-516 175,-510 181,-504 187,-504 187,-504 228,-504 228,-504 234,-504 240,-510 240,-516 240,-516 240,-528 240,-528 240,-534 234,-540 228,-540"/>
<text text-anchor="middle" x="207.5" y="-519.5" font-family="sans" font-size="10.00">input_seqs</text>
</g>
<!-- 10&#45;&gt;6 -->
<g id="edge12" class="edge">
<title>10&#45;&gt;6</title>
<path fill="none" stroke="grey" stroke-width="2" d="M207.5,-503.7C207.5,-495.98 207.5,-486.71 207.5,-478.11"/>
<polygon fill="grey" stroke="grey" stroke-width="2" points="211,-478.1 207.5,-468.1 204,-478.1 211,-478.1"/>
</g>
<!-- 11 -->
<g id="node12" class="node">
<title>11</title>
<path fill="none" stroke="#78d856" stroke-width="2" d="M229,-612C229,-612 118,-612 118,-612 112,-612 106,-606 106,-600 106,-600 106,-588 106,-588 106,-582 112,-576 118,-576 118,-576 229,-576 229,-576 235,-576 241,-582 241,-588 241,-588 241,-600 241,-600 241,-606 235,-612 229,-612"/>
<text text-anchor="middle" x="173.5" y="-591.5" font-family="sans" font-size="10.00">verified_immunity_proteins</text>
</g>
<!-- 11&#45;&gt;7 -->
<g id="edge14" class="edge">
<title>11&#45;&gt;7</title>
<path fill="none" stroke="grey" stroke-width="2" d="M210.87,-575.92C225.42,-567.29 240.69,-555.35 249.5,-540 273.44,-498.31 271.14,-440.25 267.02,-406.44"/>
<polygon fill="grey" stroke="grey" stroke-width="2" points="270.46,-405.81 265.64,-396.37 263.53,-406.75 270.46,-405.81"/>
</g>
<!-- 13 -->
<g id="node14" class="node">
<title>13</title>
<path fill="none" stroke="#d85656" stroke-width="2" d="M145,-540C145,-540 12,-540 12,-540 6,-540 0,-534 0,-528 0,-528 0,-516 0,-516 0,-510 6,-504 12,-504 12,-504 145,-504 145,-504 151,-504 157,-510 157,-516 157,-516 157,-528 157,-528 157,-534 151,-540 145,-540"/>
<text text-anchor="middle" x="78.5" y="-519.5" font-family="sans" font-size="10.00">verified_immunity_proteinsMSA</text>
</g>
<!-- 11&#45;&gt;13 -->
<g id="edge19" class="edge">
<title>11&#45;&gt;13</title>
<path fill="none" stroke="grey" stroke-width="2" d="M150.02,-575.7C137.94,-566.8 123.05,-555.82 109.98,-546.2"/>
<polygon fill="grey" stroke="grey" stroke-width="2" points="111.84,-543.22 101.71,-540.1 107.69,-548.85 111.84,-543.22"/>
</g>
<!-- 12 -->
<g id="node13" class="node">
<title>12</title>
<path fill="none" stroke="#9fd856" stroke-width="2" d="M121.5,-468C121.5,-468 85.5,-468 85.5,-468 79.5,-468 73.5,-462 73.5,-456 73.5,-456 73.5,-444 73.5,-444 73.5,-438 79.5,-432 85.5,-432 85.5,-432 121.5,-432 121.5,-432 127.5,-432 133.5,-438 133.5,-444 133.5,-444 133.5,-456 133.5,-456 133.5,-462 127.5,-468 121.5,-468"/>
<text text-anchor="middle" x="103.5" y="-447.5" font-family="sans" font-size="10.00">buildhmm</text>
</g>
<!-- 12&#45;&gt;8 -->
<g id="edge15" class="edge">
<title>12&#45;&gt;8</title>
<path fill="none" stroke="grey" stroke-width="2" d="M113.63,-431.7C118.35,-423.64 124.06,-413.89 129.28,-404.98"/>
<polygon fill="grey" stroke="grey" stroke-width="2" points="132.45,-406.5 134.48,-396.1 126.41,-402.96 132.45,-406.5"/>
</g>
<!-- 13&#45;&gt;12 -->
<g id="edge18" class="edge">
<title>13&#45;&gt;12</title>
<path fill="none" stroke="grey" stroke-width="2" d="M84.68,-503.7C87.5,-495.81 90.89,-486.3 94.02,-477.55"/>
<polygon fill="grey" stroke="grey" stroke-width="2" points="97.32,-478.7 97.39,-468.1 90.73,-476.34 97.32,-478.7"/>
</g>
</g>
</svg>
